<?xml version="1.0" encoding="UTF-8"?>
<svg version="1.1" xmlns="http://www.w3.org/2000/svg" width="500" height="500">
<path d="M0 0 C1.6877906 1.6877906 1.21187677 3.75286785 1.25 6.0625 C1.18492923 13.22958047 -0.76728223 19.11100137 -5 25 C-5.66 25 -6.32 25 -7 25 C-7 25.66 -7 26.32 -7 27 C-9.046875 28.5078125 -9.046875 28.5078125 -11.75 30.125 C-12.63171875 30.66382813 -13.5134375 31.20265625 -14.421875 31.7578125 C-17 33 -17 33 -21 33 C-21 38.28 -21 43.56 -21 49 C-20.05125 48.01 -19.1025 47.02 -18.125 46 C-16.5078125 44.3125 -16.5078125 44.3125 -15 43 C-14.34 43 -13.68 43 -13 43 C-13 42.34 -13 41.68 -13 41 C-3.84861602 33.87343417 6.16868163 31.92332057 17.4375 31.125 C18.21931641 31.0633667 19.00113281 31.0017334 19.80664062 30.93823242 C22.95319345 30.77346822 25.38650748 30.68191398 28.22270203 32.1524353 C30 34 30 34 30.44978333 36.59390259 C30.42615219 37.63235321 30.40252106 38.67080383 30.37817383 39.74072266 C30.36107864 40.91849274 30.34398346 42.09626282 30.32637024 43.3097229 C30.28698837 44.58165497 30.24760651 45.85358704 30.20703125 47.1640625 C30.18154709 48.46701263 30.15606293 49.76996277 30.12980652 51.11239624 C30.07522692 53.86834059 30.00759327 56.62353081 29.92944336 59.37890625 C29.82914793 62.91747988 29.75066402 66.45608308 29.6805315 69.99537086 C29.61307555 73.36427702 29.53540125 76.732891 29.45703125 80.1015625 C29.42777054 81.37754303 29.39850983 82.65352356 29.36836243 83.96817017 C29.33550644 85.13963593 29.30265045 86.31110168 29.26879883 87.51806641 C29.24118973 88.55492584 29.21358063 89.59178528 29.18513489 90.6600647 C29 93 29 93 28 94 C26.29595488 94.11445079 24.59106259 94.22158508 22.88452148 94.28930664 C5.84689479 94.97330607 -9.17256261 99.41516087 -22 111 C-22.33 111.66 -22.66 112.32 -23 113 C-24.65 113 -26.3 113 -28 113 C-28.66 111.68 -29.32 110.36 -30 109 C-30.66 109 -31.32 109 -32 109 C-32 108.34 -32 107.68 -32 107 C-32.52722656 106.74089844 -33.05445313 106.48179687 -33.59765625 106.21484375 C-35.41158216 105.29755764 -37.20833751 104.34620591 -38.99609375 103.37890625 C-50.31826625 97.40295822 -60.96091901 94.67633416 -73.79638672 94.46533203 C-75.76171875 94.40625 -75.76171875 94.40625 -79 94 C-81.26080828 90.60878758 -81.25246265 89.43426904 -81.25878906 85.45874023 C-81.26509338 84.32423935 -81.27139771 83.18973846 -81.27789307 82.02085876 C-81.2738446 80.79581131 -81.26979614 79.57076385 -81.265625 78.30859375 C-81.26753845 77.05240738 -81.2694519 75.79622101 -81.27142334 74.50196838 C-81.27278533 71.84467831 -81.27008981 69.18775528 -81.26074219 66.53051758 C-81.24933608 63.12172227 -81.25591677 59.71324149 -81.26788712 56.30445766 C-81.27684251 53.05582497 -81.27057717 49.80723054 -81.265625 46.55859375 C-81.26967346 45.33152206 -81.27372192 44.10445038 -81.27789307 42.8401947 C-81.27158875 41.70884598 -81.26528442 40.57749725 -81.25878906 39.41186523 C-81.25719788 38.4127562 -81.25560669 37.41364716 -81.25396729 36.38426208 C-81 34 -81 34 -79 32 C-65.53868521 29.30773704 -52.0301653 33.1716259 -40.12890625 39.53515625 C-39.42636719 40.01855469 -38.72382812 40.50195312 -38 41 C-38 41.66 -38 42.32 -38 43 C-37.34 43 -36.68 43 -36 43 C-34.29319053 44.62553283 -32.62339805 46.29115995 -31 48 C-31 43.38 -31 38.76 -31 34 C-32.051875 33.731875 -33.10375 33.46375 -34.1875 33.1875 C-40.4164386 31.2473388 -43.68555576 28.9926761 -46.9921875 23.3984375 C-48.79229477 19.11446129 -49.10881032 14.61666644 -49 10 C-48.67 9.34 -48.34 8.68 -48 8 C-43.11209834 8.11713926 -39.92680259 8.26628129 -36 11.375 C-34 14 -34 14 -33 17 C-32.34 17 -31.68 17 -31 17 C-30.01 19.64 -29.02 22.28 -28 25 C-27.67 25 -27.34 25 -27 25 C-26.82984375 24.34773438 -26.6596875 23.69546875 -26.484375 23.0234375 C-24.28639397 15.09667611 -21.21924091 9.56458397 -15 4 C-14.34 4 -13.68 4 -13 4 C-13 3.34 -13 2.68 -13 2 C-11.5882217 1.46605821 -10.17029756 0.94834896 -8.75 0.4375 C-7.96109375 0.14746094 -7.1721875 -0.14257812 -6.359375 -0.44140625 C-3.7889303 -1.0499718 -2.45365761 -0.90655049 0 0 Z M-72 41 C-72.0928726 42.41225046 -72.11746772 43.82908934 -72.11352539 45.24438477 C-72.11344986 46.14524307 -72.11337433 47.04610138 -72.11329651 47.97425842 C-72.10813522 48.95341721 -72.10297394 49.93257599 -72.09765625 50.94140625 C-72.0962413 51.93881332 -72.09482635 52.9362204 -72.09336853 53.96385193 C-72.08775114 57.16343124 -72.07519571 60.36294169 -72.0625 63.5625 C-72.05748724 65.72591045 -72.05292395 67.88932199 -72.04882812 70.05273438 C-72.03777607 75.36851325 -72.02102104 80.68425171 -72 86 C-71.15147461 86.05115967 -70.30294922 86.10231934 -69.42871094 86.1550293 C-57.84785876 86.93403615 -47.13424741 89.0668489 -36.63671875 94.265625 C-34.9948639 95.13645616 -34.9948639 95.13645616 -33 95 C-33 95.66 -33 96.32 -33 97 C-32.01 97.33 -31.02 97.66 -30 98 C-29.85012474 93.62594822 -29.74208304 89.25330972 -29.67041016 84.87744141 C-29.64049232 83.39345219 -29.59974064 81.90963586 -29.54736328 80.42626953 C-29.21765757 70.83894471 -29.78601994 63.79904918 -36 56 C-36.43723389 55.38785645 -36.87446777 54.77571289 -37.32495117 54.14501953 C-39.8088677 50.84325792 -42.02447813 49.13586339 -46 48 C-46 47.34 -46 46.68 -46 46 C-58.95211556 39.512346 -58.95211556 39.512346 -72 41 Z M-5 46 C-5 46.66 -5 47.32 -5 48 C-5.680625 48.165 -6.36125 48.33 -7.0625 48.5 C-13.75212941 51.91598097 -18.52419161 58.99852035 -21 66 C-22.20681622 71.31951886 -22.14892834 76.57624256 -22.125 82 C-22.12886719 82.8765625 -22.13273437 83.753125 -22.13671875 84.65625 C-22.12984855 89.21806549 -21.93012655 93.51177028 -21 98 C-19.74509766 97.31164062 -19.74509766 97.31164062 -18.46484375 96.609375 C-6.83386118 90.47831442 4.49594167 86.73480736 17.8046875 86.2734375 C18.52914062 86.18320312 19.25359375 86.09296875 20 86 C21.1650499 83.6699002 21.1209358 82.32752923 21.11352539 79.73388672 C21.11344986 78.85312469 21.11337433 77.97236267 21.11329651 77.06491089 C21.10813522 76.11278717 21.10297394 75.16066345 21.09765625 74.1796875 C21.0962413 73.20589142 21.09482635 72.23209534 21.09336853 71.22879028 C21.08775973 68.11082927 21.07520573 64.9929394 21.0625 61.875 C21.05748613 59.76432395 21.05292303 57.65364678 21.04882812 55.54296875 C21.03778745 50.36195479 21.02104073 45.18098248 21 40 C19.11099976 39.98296021 19.11099976 39.98296021 17.18383789 39.96557617 C16.12127525 39.95599129 16.12127525 39.95599129 15.0372467 39.94621277 C8.12343496 40.1287507 1.19417373 43.10938559 -5 46 Z " fill="#558F67" transform="translate(132,186)"/>
<path d="M0 0 C0.66 0 1.32 0 2 0 C2.89403588 3.06739333 3.12647815 5.80605548 3.12939453 8.99633789 C3.13254669 9.98739029 3.13569885 10.97844269 3.13894653 11.99952698 C3.13591019 13.59497597 3.13591019 13.59497597 3.1328125 15.22265625 C3.13376923 16.31968369 3.13472595 17.41671112 3.13571167 18.54698181 C3.13639178 20.86441098 3.13454924 23.18184207 3.13037109 25.49926758 C3.12501539 29.05228944 3.13032445 32.60518517 3.13671875 36.15820312 C3.13605804 38.40885445 3.13477702 40.65950569 3.1328125 42.91015625 C3.13483673 43.97581314 3.13686096 45.04147003 3.13894653 46.13941956 C3.13421829 47.62126991 3.13421829 47.62126991 3.12939453 49.13305664 C3.12859894 50.00257462 3.12780334 50.87209259 3.12698364 51.76795959 C3 54 3 54 2 57 C-0.71372069 58.35686035 -3.38770006 58.34655296 -6.37304688 58.59472656 C-21.54137114 59.88282112 -35.68129419 64.27701555 -47 75 C-47.33 75.66 -47.66 76.32 -48 77 C-49.65 77 -51.3 77 -53 77 C-53.66 75.68 -54.32 74.36 -55 73 C-55.66 73 -56.32 73 -57 73 C-57 72.34 -57 71.68 -57 71 C-57.52722656 70.74089844 -58.05445313 70.48179687 -58.59765625 70.21484375 C-60.41158216 69.29755764 -62.20833751 68.34620591 -63.99609375 67.37890625 C-75.31826625 61.40295822 -85.96091901 58.67633416 -98.79638672 58.46533203 C-100.76171875 58.40625 -100.76171875 58.40625 -104 58 C-106.07027098 54.89459353 -106.24286802 54.34543008 -106.15112305 50.85498047 C-106.13417892 50.02336395 -106.1172348 49.19174744 -106.09977722 48.33493042 C-106.07071793 47.43807526 -106.04165863 46.54122009 -106.01171875 45.6171875 C-105.98906448 44.68834747 -105.96641022 43.75950745 -105.94306946 42.80252075 C-105.89308427 40.83371285 -105.83811509 38.86502617 -105.77856445 36.89648438 C-105.6884866 33.90773511 -105.61335153 30.91891337 -105.54101562 27.9296875 C-105.49046985 26.01299725 -105.4390644 24.09632944 -105.38671875 22.1796875 C-105.36373215 21.29497772 -105.34074554 20.41026794 -105.31706238 19.49874878 C-105.14484075 13.95040725 -104.67855603 8.50991672 -104 3 C-103.67 3 -103.34 3 -103 3 C-102.67 6.63 -102.34 10.26 -102 14 C-100.68 13.67 -99.36 13.34 -98 13 C-97.67 25.21 -97.34 37.42 -97 50 C-92.71 50 -88.42 50 -84 50 C-74.81777578 51.54185566 -66.27958368 54.79996171 -58 59 C-58 59.66 -58 60.32 -58 61 C-57.34 61 -56.68 61 -56 61 C-55.67 50.11 -55.34 39.22 -55 28 C-54.01 28.99 -53.02 29.98 -52 31 C-49.89667109 31.71447643 -49.89667109 31.71447643 -48 32 C-47.95101562 33.25554687 -47.90203125 34.51109375 -47.8515625 35.8046875 C-47.48082857 44.38293989 -47.05872421 52.62785486 -45 61 C-44.55011719 60.68546875 -44.10023437 60.3709375 -43.63671875 60.046875 C-31.51877117 51.98443292 -19.42349103 50 -5 50 C-5 34.16 -5 18.32 -5 2 C-3.35 2.66 -1.7 3.32 0 4 C0 2.68 0 1.36 0 0 Z " fill="#598F68" transform="translate(157,222)"/>
<path d="M0 0 C1.8125 1.5625 1.8125 1.5625 3 3 C3 2.34 3 1.68 3 1 C7.93660265 -1.02527288 12.7147448 -1.88087587 18 -1 C20.25 1.0625 20.25 1.0625 22 3 C25.10502334 2.92038402 26.70342559 2.20595445 29.25 0.4375 C33.21498095 -1.63510368 36.61882749 -1.77133319 41 -1 C44.9354153 1.00348415 46.37587174 2.19696281 47.80859375 6.3359375 C49.71228608 15.70998113 49.17919926 25.48252821 49 35 C49.99 35.33 50.98 35.66 52 36 C51.67 37.32 51.34 38.64 51 40 C48.54101345 40.08076963 46.08466258 40.14037143 43.625 40.1875 C42.92632812 40.21263672 42.22765625 40.23777344 41.5078125 40.26367188 C39.4765625 40.29296875 39.4765625 40.29296875 36 40 C35.34 39.01 34.68 38.02 34 37 C34.495 36.01 34.495 36.01 35 35 C36.32 35 37.64 35 39 35 C38.86132739 30.89555833 38.71283897 26.7915296 38.5625 22.6875 C38.52318359 21.52025391 38.48386719 20.35300781 38.44335938 19.15039062 C38.40146484 18.03212891 38.35957031 16.91386719 38.31640625 15.76171875 C38.26141968 14.2142395 38.26141968 14.2142395 38.20532227 12.63549805 C38.09838758 9.89251742 38.09838758 9.89251742 37 7 C32.11476189 6.80842203 29.68510114 7.12595954 25 9 C25 17.58 25 26.16 25 35 C26.32 35.33 27.64 35.66 29 36 C29 36.99 29 37.98 29 39 C25.93466836 40.53266582 22.73245728 40.10276471 19.375 40.0625 C18.66859375 40.05798828 17.9621875 40.05347656 17.234375 40.04882812 C15.48954725 40.03703875 13.744763 40.01910324 12 40 C11.67 38.68 11.34 37.36 11 36 C12.98 35.505 12.98 35.505 15 35 C14.83483887 34.44586426 14.66967773 33.89172852 14.49951172 33.32080078 C13.94529051 30.74581212 13.93570303 28.4989445 14.0078125 25.8671875 C14.02457031 24.89652344 14.04132813 23.92585938 14.05859375 22.92578125 C14.10303857 20.88393402 14.1551823 18.84224052 14.21484375 16.80078125 C14.23611328 15.34865234 14.23611328 15.34865234 14.2578125 13.8671875 C14.2798877 12.98144043 14.30196289 12.09569336 14.32470703 11.18310547 C14.21755371 10.46268066 14.11040039 9.74225586 14 9 C10.20427594 6.01109438 10.20427594 6.01109438 1 8 C1.33 16.91 1.66 25.82 2 35 C2.99 35.33 3.98 35.66 5 36 C4.34 37.32 3.68 38.64 3 40 C0.70839681 40.02692484 -1.58329546 40.04636124 -3.875 40.0625 C-5.15117187 40.07410156 -6.42734375 40.08570313 -7.7421875 40.09765625 C-11 40 -11 40 -13 39 C-12.6875 37.0625 -12.6875 37.0625 -12 35 C-10.515 34.505 -10.515 34.505 -9 34 C-8.88381236 30.08358289 -8.81275346 26.16760899 -8.75 22.25 C-8.71648437 21.13882812 -8.68296875 20.02765625 -8.6484375 18.8828125 C-8.63554687 17.81289062 -8.62265625 16.74296875 -8.609375 15.640625 C-8.58842773 14.65610352 -8.56748047 13.67158203 -8.54589844 12.65722656 C-9.12126061 9.29042983 -10.5033781 8.2316242 -13 6 C-13.1875 3.9375 -13.1875 3.9375 -12 2 C-7.76807022 -0.36011469 -4.65808812 -1.81147871 0 0 Z " fill="#538B63" transform="translate(399,237)"/>
<path d="M0 0 C0.33 8.25 0.66 16.5 1 25 C2.98 23.68 4.96 22.36 7 21 C12.10512263 20.02486422 16.63261914 20.39227517 21.375 22.5 C27.04725736 27.90214987 29.31200286 31.93022924 29.5625 39.9375 C29.3587057 46.04475503 28.10869225 50.75408183 25 56 C24.34 56 23.68 56 23 56 C23 56.66 23 57.32 23 58 C16.417813 62.93664025 11.05854961 63.59157379 3 63 C2.0925 62.62875 1.185 62.2575 0.25 61.875 C-2.97034533 60.62264348 -4.86181701 61.81446421 -8 63 C-8.66 62.67 -9.32 62.34 -10 62 C-9.99000725 61.05159492 -9.99000725 61.05159492 -9.97981262 60.08403015 C-9.91353853 53.51448645 -9.86823239 46.94503741 -9.83520508 40.37524414 C-9.82010119 37.92207992 -9.79961679 35.46894276 -9.77368164 33.01586914 C-9.73736943 29.49358445 -9.72028964 25.97165619 -9.70703125 22.44921875 C-9.69154739 21.34913986 -9.67606354 20.24906097 -9.66011047 19.11564636 C-9.65988388 18.09481461 -9.65965729 17.07398285 -9.65942383 16.0222168 C-9.64943108 14.67319527 -9.64943108 14.67319527 -9.63923645 13.29692078 C-10.07378162 10.53024485 -10.82021323 9.69712725 -13 8 C-13.66 7.67 -14.32 7.34 -15 7 C-15 6.01 -15 5.02 -15 4 C-13.06767179 3.13419713 -11.12892806 2.28270059 -9.1875 1.4375 C-8.10855469 0.96183594 -7.02960938 0.48617187 -5.91796875 -0.00390625 C-3 -1 -3 -1 0 0 Z M0 32 C-0.82942752 35.3303468 -0.70212194 38.52533585 -0.5625 41.9375 C-0.56056641 42.83146484 -0.55863281 43.72542969 -0.55664062 44.64648438 C-0.46006116 49.46472638 -0.30291363 53.21446885 3 57 C6.27944409 58.71716272 9.71362632 59.3129017 13.3125 58.4375 C16.63165375 55.61007273 18.16892076 52.2007278 19 48 C19.38851391 42.01869281 19.41683292 36.58892613 17 31 C16.34 31 15.68 31 15 31 C15 30.34 15 29.68 15 29 C9.39939427 26.19969713 4.33137732 27.97671228 0 32 Z " fill="#589169" transform="translate(261,215)"/>
<path d="M0 0 C0.33 0.66 0.66 1.32 1 2 C0.67 2.66 0.34 3.32 0 4 C-1.32 4 -2.64 4 -4 4 C-4.0505916 10.65686814 -4.0856876 17.31368694 -4.10986328 23.97070312 C-4.11993859 26.23667249 -4.13359918 28.50262881 -4.15087891 30.76855469 C-4.17506011 34.02021501 -4.18646763 37.27170387 -4.1953125 40.5234375 C-4.20563507 41.54118256 -4.21595764 42.55892761 -4.22659302 43.60751343 C-4.22674408 44.54833771 -4.22689514 45.48916199 -4.22705078 46.45849609 C-4.23371262 47.70425919 -4.23371262 47.70425919 -4.24050903 48.97518921 C-4.1847007 51.22781007 -4.1847007 51.22781007 -2 53 C0.76210595 53.28213444 0.76210595 53.28213444 3.875 53.1875 C4.92429688 53.18105469 5.97359375 53.17460937 7.0546875 53.16796875 C9.56748409 53.02466603 11.65181128 52.88938326 14 52 C15.24714403 49.59047977 15.24714403 49.59047977 16 47 C16.495 46.01 16.495 46.01 17 45 C18.32 45 19.64 45 21 45 C20.979375 46.11375 20.95875 47.2275 20.9375 48.375 C20.73619282 51.83215921 20.73619282 51.83215921 22 54 C21.34 54 20.68 54 20 54 C19.67 55.65 19.34 57.3 19 59 C6.46 59 -6.08 59 -19 59 C-19.33 57.68 -19.66 56.36 -20 55 C-18.02 54.505 -18.02 54.505 -16 54 C-16 37.5 -16 21 -16 4 C-17.32 4 -18.64 4 -20 4 C-20.33 3.01 -20.66 2.02 -21 1 C-16.95929824 -3.04070176 -5.12587612 -0.90942963 0 0 Z " fill="#599269" transform="translate(204,218)"/>
<path d="M0 0 C0 11.22 0 22.44 0 34 C1.65 34 3.3 34 5 34 C5 34.99 5 35.98 5 37 C1.52661731 39.65611617 -1.64972843 40.71628664 -6 41 C-6.99 40.34 -7.98 39.68 -9 39 C-9 38.01 -9 37.02 -9 36 C-9.928125 36.66 -10.85625 37.32 -11.8125 38 C-16.66347766 40.76634164 -21.55948338 40.84798176 -27 40 C-30.61691275 37.90219061 -31.68291409 36.95125774 -33 33 C-33.15070797 30.86338742 -33.2485966 28.72287876 -33.31640625 26.58203125 C-33.37924805 24.70161133 -33.37924805 24.70161133 -33.44335938 22.78320312 C-33.48267578 21.47287109 -33.52199219 20.16253906 -33.5625 18.8125 C-33.60570992 17.47720022 -33.649325 16.14191348 -33.69335938 14.80664062 C-33.79956502 11.53786703 -33.90160997 8.26901667 -34 5 C-35.32 4.67 -36.64 4.34 -38 4 C-37.67 3.01 -37.34 2.02 -37 1 C-31.06 0.505 -31.06 0.505 -25 0 C-23.88812 6.40408405 -23.95970858 12.57855359 -24.12695312 19.06054688 C-24.19094441 23.76955264 -23.98472721 27.62132347 -22 32 C-19.81968848 33.75548759 -19.81968848 33.75548759 -17 34 C-15.02 33.01 -13.04 32.02 -11 31 C-11 22.75 -11 14.5 -11 6 C-12.32 5.67 -13.64 5.34 -15 5 C-14.80078125 3.1171875 -14.80078125 3.1171875 -14 1 C-11.85546875 -0.1171875 -11.85546875 -0.1171875 -9.1875 -0.875 C-8.31480469 -1.14054688 -7.44210937 -1.40609375 -6.54296875 -1.6796875 C-4 -2 -4 -2 0 0 Z " fill="#5C936C" transform="translate(380,237)"/>
<path d="M0 0 C0.66 0.33 1.32 0.66 2 1 C2.625 3.0625 2.625 3.0625 3 5 C3.804375 4.01 3.804375 4.01 4.625 3 C7 1 7 1 10.0625 0.5625 C13 1 13 1 14.875 2 C16.72802556 5.29426767 16.24096594 8.26502789 16 12 C15 13 15 13 12.4375 13.0625 C11.633125 13.041875 10.82875 13.02125 10 13 C9.67 12.01 9.34 11.02 9 10 C5.81765895 11.75454385 5.81765895 11.75454385 3 14 C2.84259395 15.70563778 2.74906608 17.41727244 2.68359375 19.12890625 C2.64169922 20.16337891 2.59980469 21.19785156 2.55664062 22.26367188 C2.51732422 23.35228516 2.47800781 24.44089844 2.4375 25.5625 C2.39431641 26.65498047 2.35113281 27.74746094 2.30664062 28.87304688 C2.20017932 31.58189564 2.09816484 34.29083992 2 37 C3.65 37.33 5.3 37.66 7 38 C7 39.32 7 40.64 7 42 C1.39 42 -4.22 42 -10 42 C-10.33 40.68 -10.66 39.36 -11 38 C-9.02 37.505 -9.02 37.505 -7 37 C-7 28.09 -7 19.18 -7 10 C-8.32 9.34 -9.64 8.68 -11 8 C-11 7.01 -11 6.02 -11 5 C-9.730447 4.35165346 -8.45930294 3.70642185 -7.1875 3.0625 C-6.47980469 2.70285156 -5.77210938 2.34320313 -5.04296875 1.97265625 C-3 1 -3 1 0 0 Z " fill="#49865C" transform="translate(304,235)"/>
<path d="M0 0 C0.33 11.55 0.66 23.1 1 35 C1.99 35.33 2.98 35.66 4 36 C4.33 36.99 4.66 37.98 5 39 C2.94844219 41.05155781 -1.11008525 40.45882524 -3.9375 40.625 C-4.67935547 40.6765625 -5.42121094 40.728125 -6.18554688 40.78125 C-11.75124849 41.12437576 -11.75124849 41.12437576 -14 40 C-14 39.01 -14 38.02 -14 37 C-12.02 36.505 -12.02 36.505 -10 36 C-10 26.76 -10 17.52 -10 8 C-11.32 7.67 -12.64 7.34 -14 7 C-14 6.01 -14 5.02 -14 4 C-12.60984189 3.32157861 -11.2125473 2.657771 -9.8125 2 C-9.03519531 1.62875 -8.25789063 1.2575 -7.45703125 0.875 C-5 0 -5 0 0 0 Z " fill="#619670" transform="translate(336,236)"/>
<path d="M0 0 C0.77800681 4.79995203 1.11851665 9.38562064 1.09765625 14.24609375 C1.0962413 14.90207047 1.09482635 15.55804718 1.09336853 16.23390198 C1.08783031 18.30181702 1.07529002 20.36961842 1.0625 22.4375 C1.05747699 23.85090988 1.0529155 25.26432148 1.04882812 26.67773438 C1.03788126 30.11852568 1.02066038 33.55925172 1 37 C2.32 37.33 3.64 37.66 5 38 C5 38.99 5 39.98 5 41 C1.39006828 42.13480527 -1.9842327 42.10015767 -5.75 42.0625 C-6.92046875 42.05347656 -8.0909375 42.04445313 -9.296875 42.03515625 C-10.18890625 42.02355469 -11.0809375 42.01195312 -12 42 C-12.33 40.68 -12.66 39.36 -13 38 C-10.525 37.505 -10.525 37.505 -8 37 C-8.02288437 32.95709522 -8.10031108 28.91698908 -8.1875 24.875 C-8.19620117 23.16183594 -8.19620117 23.16183594 -8.20507812 21.4140625 C-8.26501607 14.28202181 -8.26501607 14.28202181 -11.55078125 8.1953125 C-12.76314453 7.10863281 -12.76314453 7.10863281 -14 6 C-10.292996 2.7563715 -5.02493834 0 0 0 Z " fill="#4F8860" transform="translate(241,235)"/>
<path d="M0 0 C0.66 0 1.32 0 2 0 C2.89403588 3.06739333 3.12647815 5.80605548 3.12939453 8.99633789 C3.13254669 9.98739029 3.13569885 10.97844269 3.13894653 11.99952698 C3.1369223 13.06315964 3.13489807 14.1267923 3.1328125 15.22265625 C3.13424759 16.8681974 3.13424759 16.8681974 3.13571167 18.54698181 C3.13639178 20.86441098 3.13454924 23.18184207 3.13037109 25.49926758 C3.12501539 29.05228944 3.13032445 32.60518517 3.13671875 36.15820312 C3.13605804 38.40885445 3.13477702 40.65950569 3.1328125 42.91015625 C3.13483673 43.97581314 3.13686096 45.04147003 3.13894653 46.13941956 C3.13579437 47.12731979 3.13264221 48.11522003 3.12939453 49.13305664 C3.12859894 50.00257462 3.12780334 50.87209259 3.12698364 51.76795959 C3 54 3 54 2 57 C-1.18824568 58.59412284 -4.62896662 58.10174735 -8.125 58.0625 C-8.87910156 58.05798828 -9.63320312 58.05347656 -10.41015625 58.04882812 C-12.27347127 58.03703499 -14.13674555 58.01909942 -16 58 C-13 56 -13 56 -4 56 C-4.33 38.18 -4.66 20.36 -5 2 C-2.525 2.99 -2.525 2.99 0 4 C0 2.68 0 1.36 0 0 Z " fill="#498C5E" transform="translate(157,222)"/>
<path d="M0 0 C1.11188 6.40408405 1.04029142 12.57855359 0.87304688 19.06054688 C0.80908897 23.76709593 1.01523236 27.62244628 3 32 C3.66 32.33 4.32 32.66 5 33 C4.625 35.4375 4.625 35.4375 4 38 C1.20129973 39.39935013 -0.90498792 39.25265405 -4 39 C-6.55949546 37.14657225 -6.97918798 36.06243607 -8 33 C-8.15070797 30.86338742 -8.2485966 28.72287876 -8.31640625 26.58203125 C-8.37924805 24.70161133 -8.37924805 24.70161133 -8.44335938 22.78320312 C-8.48267578 21.47287109 -8.52199219 20.16253906 -8.5625 18.8125 C-8.60570992 17.47720022 -8.649325 16.14191348 -8.69335938 14.80664062 C-8.79956502 11.53786703 -8.90160997 8.26901667 -9 5 C-10.32 4.67 -11.64 4.34 -13 4 C-12.67 3.01 -12.34 2.02 -12 1 C-7.93631321 0.22596442 -4.13574827 -0.0984702 0 0 Z " fill="#558D66" transform="translate(355,237)"/>
<path d="M0 0 C1.0625 1.75 1.0625 1.75 2 4 C1.67 5.32 1.34 6.64 1 8 C-3.455 8.495 -3.455 8.495 -8 9 C-8 9.66 -8 10.32 -8 11 C-8.78761719 11.13535156 -9.57523438 11.27070313 -10.38671875 11.41015625 C-18.4234106 12.99847286 -24.21797039 15.44400395 -31.125 19.76953125 C-34 21 -34 21 -36.75 20.38671875 C-39 19 -39 19 -41 16 C-41.33 16 -41.66 16 -42 16 C-42 13.36 -42 10.72 -42 8 C-41.67 8 -41.34 8 -41 8 C-40.67 9.65 -40.34 11.3 -40 13 C-39.55011719 12.68546875 -39.10023437 12.3709375 -38.63671875 12.046875 C-26.73218623 4.12642451 -14.08537679 1.57100375 0 2 C0 1.34 0 0.68 0 0 Z " fill="#578D66" transform="translate(152,270)"/>
<path d="M0 0 C0.33 0 0.66 0 1 0 C1.33 3.63 1.66 7.26 2 11 C3.32 10.67 4.64 10.34 6 10 C6.24237402 15.03459617 6.45722977 20.06934629 6.64697266 25.10620117 C6.71531287 26.81843131 6.79108476 28.53038198 6.87451172 30.24194336 C6.9933375 32.70650466 7.08514461 35.17084466 7.171875 37.63671875 C7.21439392 38.39836838 7.25691284 39.16001801 7.30072021 39.94474792 C7.40741395 43.72663903 7.1378316 45.77906615 5.11425781 49.02270508 C3 51 3 51 1 51 C0.77213542 48.94921875 0.54427083 46.8984375 0.31640625 44.84765625 C0.18113386 42.98859771 0.18113386 42.98859771 -1 42 C-1.10106802 39.65674743 -1.1397037 37.34369243 -1.1328125 35 C-1.13376923 34.29029053 -1.13472595 33.58058105 -1.13571167 32.84936523 C-1.13639405 31.33951733 -1.13453573 29.82966653 -1.13037109 28.31982422 C-1.12508651 26.03736516 -1.13028094 23.75510863 -1.13671875 21.47265625 C-1.13969177 14.25416364 -1.02524426 7.16043607 0 0 Z " fill="#448155" transform="translate(53,225)"/>
<path d="M0 0 C0.99 0.99 1.98 1.98 3 3 C5.10332891 3.71447643 5.10332891 3.71447643 7 4 C7.0501123 4.93384521 7.10022461 5.86769043 7.15185547 6.82983398 C7.34175994 10.28364089 7.54023934 13.73672924 7.74462891 17.18969727 C7.8314277 18.68624509 7.91477068 20.18299741 7.99462891 21.67993164 C8.10979756 23.82761369 8.23724438 25.97426143 8.3671875 28.12109375 C8.44050293 29.4145874 8.51381836 30.70808105 8.58935547 32.04077148 C8.72486816 33.01731689 8.86038086 33.9938623 9 35 C9.66 35.33 10.32 35.66 11 36 C11.33 36.99 11.66 37.98 12 39 C12.66 39.66 13.32 40.32 14 41 C9.05 41.495 9.05 41.495 4 42 C3.505 40.515 3.505 40.515 3 39 C2.34 38.34 1.68 37.68 1 37 C-0.32 37.66 -1.64 38.32 -3 39 C-3.495 37.515 -3.495 37.515 -4 36 C-1.525 35.505 -1.525 35.505 1 35 C0.505 17.675 0.505 17.675 0 0 Z " fill="#49885C" transform="translate(102,250)"/>
<path d="M0 0 C0.33 0.66 0.66 1.32 1 2 C-2.96 3.98 -2.96 3.98 -7 6 C-6.01 6.66 -5.02 7.32 -4 8 C-4.99 8.495 -4.99 8.495 -6 9 C-6.33 21.21 -6.66 33.42 -7 46 C-7.33 46 -7.66 46 -8 46 C-8.33 36.76 -8.66 27.52 -9 18 C-10.32 18 -11.64 18 -13 18 C-15.41165478 15.74621878 -15.95800039 14.340513 -16.36328125 11.0546875 C-16.34652344 10.00539062 -16.32976563 8.95609375 -16.3125 7.875 C-16.30863281 6.82054687 -16.30476563 5.76609375 -16.30078125 4.6796875 C-16 2 -16 2 -14 0 C-9.5016983 -1.4994339 -4.57181984 -1.08627951 0 0 Z " fill="#609A72" transform="translate(67,218)"/>
<path d="M0 0 C0.33 0 0.66 0 1 0 C1 10.56 1 21.12 1 32 C-1.475 32.495 -1.475 32.495 -4 33 C-3.67 33.66 -3.34 34.32 -3 35 C-1.35 34.34 0.3 33.68 2 33 C2.66 34.65 3.32 36.3 4 38 C7.3 38 10.6 38 14 38 C13.21625 38.763125 12.4325 39.52625 11.625 40.3125 C8.92742283 42.90891805 8.92742283 42.90891805 7 46 C4.375 46.1875 4.375 46.1875 2 46 C1.34 44.68 0.68 43.36 0 42 C-0.66 42 -1.32 42 -2 42 C-2 41.34 -2 40.68 -2 40 C-2.515625 39.7525 -3.03125 39.505 -3.5625 39.25 C-6.77184151 37.60418384 -9.87585664 35.8023904 -13 34 C-11 33 -9 32 -7 31 C-7 29.68 -7 28.36 -7 27 C-5.68 27.33 -4.36 27.66 -3 28 C-3 28.66 -3 29.32 -3 30 C-2.34 30 -1.68 30 -1 30 C-0.67 20.1 -0.34 10.2 0 0 Z " fill="#609671" transform="translate(102,253)"/>
<path d="M0 0 C0 8.91 0 17.82 0 27 C-0.33 27 -0.66 27 -1 27 C-1 23.7 -1 20.4 -1 17 C-2.98 17.99 -2.98 17.99 -5 19 C-5.33 17.68 -5.66 16.36 -6 15 C-6.66 15 -7.32 15 -8 15 C-8.37125 13.329375 -8.37125 13.329375 -8.75 11.625 C-9.61005339 7.95384802 -9.61005339 7.95384802 -12.125 6.5625 C-12.74375 6.376875 -13.3625 6.19125 -14 6 C-14 5.01 -14 4.02 -14 3 C-8.6411182 -0.21532908 -6.91192327 0 0 0 Z " fill="#448358" transform="translate(260,216)"/>
<path d="M0 0 C1.98 0.66 3.96 1.32 6 2 C7.5960654 9.82072047 6.22518358 17.2236282 5 25 C4.34 24.01 3.68 23.02 3 22 C1.35 23.65 -0.3 25.3 -2 27 C-2.05784708 22.87505849 -2.09354407 18.75022056 -2.125 14.625 C-2.14175781 13.449375 -2.15851563 12.27375 -2.17578125 11.0625 C-2.18222656 9.94101563 -2.18867188 8.81953125 -2.1953125 7.6640625 C-2.20578613 6.62717285 -2.21625977 5.5902832 -2.22705078 4.52197266 C-2 2 -2 2 0 0 Z " fill="#478159" transform="translate(441,245)"/>
<path d="M0 0 C0.33 0 0.66 0 1 0 C1.02531927 6.9234133 1.04285389 13.84681469 1.05493164 20.77026367 C1.05996575 23.126388 1.06679346 25.4825092 1.07543945 27.83862305 C1.0875453 31.2218503 1.09323749 34.60503632 1.09765625 37.98828125 C1.10281754 39.04461258 1.10797882 40.10094391 1.11329651 41.18928528 C1.11340981 42.66047066 1.11340981 42.66047066 1.11352539 44.16137695 C1.115746 45.02519485 1.11796661 45.88901276 1.12025452 46.77900696 C1 49 1 49 0 52 C-3.18824568 53.59412284 -6.62896662 53.10174735 -10.125 53.0625 C-10.87910156 53.05798828 -11.63320312 53.05347656 -12.41015625 53.04882812 C-14.27347127 53.03703499 -16.13674555 53.01909942 -18 53 C-15 51 -15 51 -6 51 C-6 45.06 -6 39.12 -6 33 C-5.34 33 -4.68 33 -4 33 C-3.67 33.99 -3.34 34.98 -3 36 C-1.515 35.505 -1.515 35.505 0 35 C0 23.45 0 11.9 0 0 Z " fill="#457F56" transform="translate(159,227)"/>
<path d="M0 0 C0.33 0 0.66 0 1 0 C1.33 7.92 1.66 15.84 2 24 C2.99 24 3.98 24 5 24 C5 25.65 5 27.3 5 29 C5.99 29.33 6.98 29.66 8 30 C8.33 28.02 8.66 26.04 9 24 C10.98 24.33 12.96 24.66 15 25 C15 25.99 15 26.98 15 28 C11.52661731 30.65611617 8.35027157 31.71628664 4 32 C3.01 31.34 2.02 30.68 1 30 C1 29.01 1 28.02 1 27 C0.071875 27.66 -0.85625 28.32 -1.8125 29 C-6.6570211 31.83095472 -11.55522975 31.35445159 -17 31 C-13.25 29 -13.25 29 -11 29 C-10.67 27.68 -10.34 26.36 -10 25 C-9.2575 24.87625 -8.515 24.7525 -7.75 24.625 C-4.69357882 24.04501335 -4.69357882 24.04501335 -1 22 C-0.67 14.74 -0.34 7.48 0 0 Z " fill="#699878" transform="translate(370,246)"/>
<path d="M0 0 C0.33 0 0.66 0 1 0 C1.33 8.58 1.66 17.16 2 26 C2.99 26.33 3.98 26.66 5 27 C4.34 28.32 3.68 29.64 3 31 C0.70839681 31.02692484 -1.58329546 31.04636124 -3.875 31.0625 C-5.15117187 31.07410156 -6.42734375 31.08570313 -7.7421875 31.09765625 C-11 31 -11 31 -13 30 C-12.6875 28.0625 -12.6875 28.0625 -12 26 C-11.01 25.67 -10.02 25.34 -9 25 C-8.67 17.41 -8.34 9.82 -8 2 C-7.67 2 -7.34 2 -7 2 C-6.67 9.26 -6.34 16.52 -6 24 C-5.01 23.01 -4.02 22.02 -3 21 C-2.34 22.32 -1.68 23.64 -1 25 C-0.67 16.75 -0.34 8.5 0 0 Z " fill="#80AD8C" transform="translate(399,246)"/>
<path d="M0 0 C1.67542976 0.28604898 3.34385343 0.61781233 5 1 C4.67 1.66 4.34 2.32 4 3 C2.68 3 1.36 3 0 3 C-0.02690844 5.62506802 -0.04679404 8.24986173 -0.0625 10.875 C-0.07087891 11.62136719 -0.07925781 12.36773437 -0.08789062 13.13671875 C-0.20688084 17.19845578 -0.20688084 17.19845578 1 21 C0.01 21.33 -0.98 21.66 -2 22 C-2.226875 21.360625 -2.45375 20.72125 -2.6875 20.0625 C-3.120625 19.381875 -3.55375 18.70125 -4 18 C-5.65 17.67 -7.3 17.34 -9 17 C-9.33 12.71 -9.66 8.42 -10 4 C-5 1 -5 1 -1 1 C-0.67 0.67 -0.34 0.34 0 0 Z " fill="#5D966E" transform="translate(111,216)"/>
<path d="M0 0 C0.33 0 0.66 0 1 0 C1.33 6.6 1.66 13.2 2 20 C3.32 20 4.64 20 6 20 C6.66 20.33 7.32 20.66 8 21 C8.33 21.99 8.66 22.98 9 24 C9.99 24.33 10.98 24.66 12 25 C12.33 25.99 12.66 26.98 13 28 C10.94844219 30.05155781 6.88991475 29.45882524 4.0625 29.625 C2.9497168 29.70234375 2.9497168 29.70234375 1.81445312 29.78125 C-3.75124849 30.12437576 -3.75124849 30.12437576 -6 29 C-6 28.01 -6 27.02 -6 26 C-5.360625 25.896875 -4.72125 25.79375 -4.0625 25.6875 C-3.0415625 25.3471875 -3.0415625 25.3471875 -2 25 C-1.0268319 22.0804957 -0.8070454 19.94555049 -0.68359375 16.89453125 C-0.64169922 15.91162109 -0.59980469 14.92871094 -0.55664062 13.91601562 C-0.51732422 12.89185547 -0.47800781 11.86769531 -0.4375 10.8125 C-0.39431641 9.77673828 -0.35113281 8.74097656 -0.30664062 7.67382812 C-0.20055634 5.1160181 -0.09849854 2.55811155 0 0 Z " fill="#427F55" transform="translate(328,247)"/>
<path d="M0 0 C0.33 0 0.66 0 1 0 C1.01981934 0.65597168 1.03963867 1.31194336 1.06005859 1.98779297 C1.15512507 4.95061069 1.26487752 7.91270532 1.375 10.875 C1.4059375 11.90753906 1.436875 12.94007813 1.46875 14.00390625 C1.50742187 14.99003906 1.54609375 15.97617187 1.5859375 16.9921875 C1.6173584 17.90339355 1.6487793 18.81459961 1.68115234 19.75341797 C1.79882511 22.19931186 1.79882511 22.19931186 4 24 C6.09782787 21.90217213 6.6509396 20.6200793 7.625 17.875 C7.88539063 17.15054687 8.14578125 16.42609375 8.4140625 15.6796875 C8.60742188 15.12539063 8.80078125 14.57109375 9 14 C9.33 14 9.66 14 10 14 C10 17.63 10 21.26 10 25 C11.32 25.33 12.64 25.66 14 26 C14 26.99 14 27.98 14 29 C10.93466836 30.53266582 7.73245728 30.10276471 4.375 30.0625 C3.66859375 30.05798828 2.9621875 30.05347656 2.234375 30.04882812 C0.48954725 30.03703875 -1.255237 30.01910324 -3 30 C-3.33 28.68 -3.66 27.36 -4 26 C-2.68 25.67 -1.36 25.34 0 25 C-0.16749756 24.44280273 -0.33499512 23.88560547 -0.50756836 23.31152344 C-1.0509859 20.76066709 -1.02170324 18.6177034 -0.87890625 16.015625 C-0.83056641 15.08105469 -0.78222656 14.14648438 -0.73242188 13.18359375 C-0.67634766 12.21550781 -0.62027344 11.24742187 -0.5625 10.25 C-0.51029297 9.26644531 -0.45808594 8.28289062 -0.40429688 7.26953125 C-0.27488563 4.84601151 -0.13993095 2.42293136 0 0 Z " fill="#84AF90" transform="translate(414,247)"/>
<path d="M0 0 C1.32 0 2.64 0 4 0 C3.979375 1.11375 3.95875 2.2275 3.9375 3.375 C3.73619282 6.83215921 3.73619282 6.83215921 5 9 C4.34 9 3.68 9 3 9 C2.67 10.65 2.34 12.3 2 14 C-10.54 14 -23.08 14 -36 14 C-36 13.67 -36 13.34 -36 13 C-20.655 12.505 -20.655 12.505 -5 12 C-8.3 11.34 -11.6 10.68 -15 10 C-15 9.67 -15 9.34 -15 9 C-14.15695313 8.91363281 -13.31390625 8.82726562 -12.4453125 8.73828125 C-11.34960938 8.59777344 -10.25390625 8.45726562 -9.125 8.3125 C-8.03445312 8.18488281 -6.94390625 8.05726563 -5.8203125 7.92578125 C-2.79248254 7.29080543 -2.79248254 7.29080543 -1.6796875 4.54296875 C-1.45539063 3.70378906 -1.23109375 2.86460937 -1 2 C-0.67 1.34 -0.34 0.68 0 0 Z " fill="#9CBFA5" transform="translate(221,263)"/>
<path d="M0 0 C9.98337408 -0.77457213 9.98337408 -0.77457213 13.625 2 C15.36322247 5.79248538 15.71818543 8.84323502 16 13 C13 13 13 13 10 12 C10 11.34 10 10.68 10 10 C9.34 10 8.68 10 8 10 C8 9.34 8 8.68 8 8 C5.36 7.34 2.72 6.68 0 6 C-1 2 -1 2 0 0 Z " fill="#629370" transform="translate(268,236)"/>
<path d="M0 0 C2.875 0.5625 2.875 0.5625 4.75 1.5625 C6.60302556 4.85676767 6.11596594 7.82752789 5.875 11.5625 C4.875 12.5625 4.875 12.5625 2.3125 12.625 C1.508125 12.604375 0.70375 12.58375 -0.125 12.5625 C-0.455 11.5725 -0.785 10.5825 -1.125 9.5625 C-2.775 10.2225 -4.425 10.8825 -6.125 11.5625 C-6.785 9.9125 -7.445 8.2625 -8.125 6.5625 C-3.98459885 0.71722779 -3.98459885 0.71722779 0 0 Z " fill="#5A916B" transform="translate(314.125,235.4375)"/>
<path d="M0 0 C1.32 0 2.64 0 4 0 C4 10.23 4 20.46 4 31 C3.01 31 2.02 31 1 31 C-0.43509221 28.12981559 -0.11158506 25.66456277 -0.09765625 22.4609375 C-0.09443359 21.15898437 -0.09121094 19.85703125 -0.08789062 18.515625 C-0.07953466 17.13541601 -0.07106971 15.75520768 -0.0625 14.375 C-0.05748501 12.98698074 -0.0529221 11.59895978 -0.04882812 10.2109375 C-0.03700976 6.80724868 -0.02053434 3.40364561 0 0 Z " fill="#4C8A5F" transform="translate(54,236)"/>
<path d="M0 0 C1.53445094 3.06890187 0.54984289 5.70094266 0 9 C-0.66 9 -1.32 9 -2 9 C-2 10.65 -2 12.3 -2 14 C-2.99 14.495 -2.99 14.495 -4 15 C-4.33 13.68 -4.66 12.36 -5 11 C-5.5775 11.165 -6.155 11.33 -6.75 11.5 C-9 12 -9 12 -13 12 C-13.33 11.34 -13.66 10.68 -14 10 C-15.65 10.33 -17.3 10.66 -19 11 C-18.34 8.69 -17.68 6.38 -17 4 C-16.071875 4.2784375 -16.071875 4.2784375 -15.125 4.5625 C-12.95839822 5.23686176 -12.95839822 5.23686176 -11 4 C-10.67 5.65 -10.34 7.3 -10 9 C-9.34 9 -8.68 9 -8 9 C-7.9175 8.4225 -7.835 7.845 -7.75 7.25 C-6.7766189 4.3298567 -5.32386725 2.98212207 -3 1 C-2.01 0.67 -1.02 0.34 0 0 Z " fill="#5A926C" transform="translate(120,228)"/>
<path d="M0 0 C0.66 0.66 1.32 1.32 2 2 C2.99 1.67 3.98 1.34 5 1 C5.185625 1.61875 5.37125 2.2375 5.5625 2.875 C7.71437233 6.05602866 10.37533763 6.19451947 14 7 C14 8.32 14 9.64 14 11 C8.39 11 2.78 11 -3 11 C-3.33 9.68 -3.66 8.36 -4 7 C-2.68 6.67 -1.36 6.34 0 6 C0 4.02 0 2.04 0 0 Z " fill="#6C9E7A" transform="translate(297,266)"/>
<path d="M0 0 C0.45375 0.639375 0.9075 1.27875 1.375 1.9375 C2.83921726 4.09702406 2.83921726 4.09702406 5 5 C5 6.32 5 7.64 5 9 C5.99 9 6.98 9 8 9 C8 12.96 8 16.92 8 21 C5.69 21.33 3.38 21.66 1 22 C0.05862745 19.17588235 -0.11725382 17.47081968 -0.09765625 14.55078125 C-0.09443359 13.70322266 -0.09121094 12.85566406 -0.08789062 11.98242188 C-0.07951172 11.10134766 -0.07113281 10.22027344 -0.0625 9.3125 C-0.05798828 8.41982422 -0.05347656 7.52714844 -0.04882812 6.60742188 C-0.03704983 4.40488013 -0.02060164 2.20247401 0 0 Z " fill="#488359" transform="translate(415,250)"/>
<path d="M0 0 C5.23008377 1.59808115 7.33288288 4.42787644 10.23046875 8.8984375 C11 11 11 11 10.3203125 13.140625 C9.92585938 13.83671875 9.53140625 14.5328125 9.125 15.25 C8.73570312 15.95640625 8.34640625 16.6628125 7.9453125 17.390625 C7.63335937 17.92171875 7.32140625 18.4528125 7 19 C5.35 19 3.7 19 2 19 C2 21.31 2 23.62 2 26 C1.67 26 1.34 26 1 26 C0.67 21.05 0.34 16.1 0 11 C1.32 11.33 2.64 11.66 4 12 C3.67 9.03 3.34 6.06 3 3 C2.34 3 1.68 3 1 3 C0.67 2.01 0.34 1.02 0 0 Z " fill="#629873" transform="translate(279,237)"/>
<path d="M0 0 C0.33 1.32 0.66 2.64 1 4 C4.465 3.505 4.465 3.505 8 3 C7.01 3.495 7.01 3.495 6 4 C6 4.66 6 5.32 6 6 C0.86968793 9.84773405 -2.74634537 11.13986686 -9.0625 11.1875 C-10.34833984 11.20876953 -10.34833984 11.20876953 -11.66015625 11.23046875 C-14 11 -14 11 -17 9 C-16.34 8.67 -15.68 8.34 -15 8 C-15 7.01 -15 6.02 -15 5 C-12.69 5 -10.38 5 -8 5 C-8 5.66 -8 6.32 -8 7 C-7.01 6.34 -6.02 5.68 -5 5 C-4.01 5 -3.02 5 -2 5 C-1.34 3.35 -0.68 1.7 0 0 Z " fill="#6A9C78" transform="translate(278,267)"/>
<path d="M0 0 C3.0625 0.3125 3.0625 0.3125 5 1.375 C6.69431173 4.46462727 5.80201685 6.98467418 5.0625 10.3125 C4.0625 11.3125 4.0625 11.3125 2.25 11.4453125 C1.528125 11.44273437 0.80625 11.44015625 0.0625 11.4375 C-0.659375 11.44007813 -1.38125 11.44265625 -2.125 11.4453125 C-3.9375 11.3125 -3.9375 11.3125 -4.9375 10.3125 C-5.21064815 4.57638889 -5.21064815 4.57638889 -4.9375 2.3125 C-2.9375 0.3125 -2.9375 0.3125 0 0 Z " fill="#699776" transform="translate(330.9375,218.6875)"/>
<path d="M0 0 C3.4375 0.8125 3.4375 0.8125 5.4375 3.8125 C5.1133631 7.13490324 4.82973697 8.42026303 2.4375 10.8125 C-1.0625 11.0625 -1.0625 11.0625 -4.5625 10.8125 C-6.5625 8.8125 -6.5625 8.8125 -6.875 5.3125 C-6.771875 4.1575 -6.66875 3.0025 -6.5625 1.8125 C-3.5625 -0.1875 -3.5625 -0.1875 0 0 Z " fill="#649471" transform="translate(237.5625,219.1875)"/>
<path d="M0 0 C2.10865385 3.47307692 2.10865385 3.47307692 1.55859375 6.140625 C1.37425781 6.75421875 1.18992188 7.3678125 1 8 C-1.10018513 8.41644184 -3.20541042 8.80753303 -5.3125 9.1875 C-6.48425781 9.40792969 -7.65601563 9.62835938 -8.86328125 9.85546875 C-12 10 -12 10 -13.79296875 8.61328125 C-14.19128906 8.08089844 -14.58960938 7.54851562 -15 7 C-15.66 6.67 -16.32 6.34 -17 6 C-17 5.34 -17 4.68 -17 4 C-13.07142246 2.14868517 -10.01224888 1.77995057 -5.6875 1.875 C-4.61886719 1.89304687 -3.55023438 1.91109375 -2.44921875 1.9296875 C-1.64097656 1.95289063 -0.83273438 1.97609375 0 2 C0 1.34 0 0.68 0 0 Z " fill="#559167" transform="translate(152,270)"/>
<path d="M0 0 C0.66 1.32 1.32 2.64 2 4 C2.66 3.01 3.32 2.02 4 1 C4.66 1 5.32 1 6 1 C6.11608726 4.27053517 6.18720711 7.5405418 6.25 10.8125 C6.28351563 11.74126953 6.31703125 12.67003906 6.3515625 13.62695312 C6.36445313 14.51962891 6.37734375 15.41230469 6.390625 16.33203125 C6.4220459 17.56530151 6.4220459 17.56530151 6.45410156 18.82348633 C6 21 6 21 3.97558594 22.79174805 C2.9976709 23.38983276 2.9976709 23.38983276 2 24 C2 22.35 2 20.7 2 19 C1.34 19 0.68 19 0 19 C0 12.73 0 6.46 0 0 Z " fill="#5F986E" transform="translate(153,241)"/>
<path d="M0 0 C2.01821046 2.5686315 3.57978859 5.06489642 5 8 C5.99 9.485 5.99 9.485 7 11 C1.25 12 1.25 12 -1 12 C-0.34 13.65 0.32 15.3 1 17 C-3.44380808 15.86726461 -7.26436721 14.71682385 -11 12 C-11 11.34 -11 10.68 -11 10 C-8.33333333 10.66666667 -5.66666667 11.33333333 -3 12 C-3.20625 11.2575 -3.4125 10.515 -3.625 9.75 C-4.04408751 6.67669159 -3.61949011 5.57213134 -2 3 C-1.34 3 -0.68 3 0 3 C0 2.01 0 1.02 0 0 Z " fill="#60986F" transform="translate(100,203)"/>
<path d="M0 0 C4.95362625 1.80997882 8.36181381 3.16332532 11 8 C10.75 11.8125 10.75 11.8125 10 15 C5.58269351 14.49516497 2.91549235 13.41529104 0 10 C-0.42360629 6.62703491 -0.29032855 3.3807147 0 0 Z " fill="#49875D" transform="translate(89,226)"/>
<path d="M0 0 C7.33195884 -0.36659794 7.33195884 -0.36659794 10.11114502 1.15852356 C12 3 12 3 12.4430542 5.60063171 C12.41640686 6.64209854 12.38975952 7.68356537 12.36230469 8.7565918 C12.34198181 9.93758957 12.32165894 11.11858734 12.30072021 12.33537292 C12.23694183 14.24797661 12.23694183 14.24797661 12.171875 16.19921875 C12.14401917 17.50454056 12.11616333 18.80986237 12.08746338 20.15473938 C12.01323219 23.62250047 11.91469116 27.08916079 11.81109619 30.55615234 C11.7096523 34.09503414 11.63118037 37.63441676 11.55078125 41.17382812 C11.38968335 48.11654936 11.2029008 55.0583782 11 62 C9.02 62.495 9.02 62.495 7 63 C7.99 62.505 7.99 62.505 9 62 C9 43.19 9 24.38 9 5 C8.34 4.67 7.68 4.34 7 4 C7 3.01 7 2.02 7 1 C4.69 1 2.38 1 0 1 C0 0.67 0 0.34 0 0 Z " fill="#698A73" transform="translate(150,217)"/>
<path d="M0 0 C1.45922693 0.11409593 2.91740598 0.24165544 4.375 0.375 C5.59316406 0.47941406 5.59316406 0.47941406 6.8359375 0.5859375 C9 1 9 1 11 3 C10.01 3.66 9.02 4.32 8 5 C7.53464844 5.52980469 7.06929687 6.05960938 6.58984375 6.60546875 C4.50173401 8.43705395 3.30466793 8.37261498 0.5625 8.3125 C-0.19933594 8.30863281 -0.96117188 8.30476562 -1.74609375 8.30078125 C-4.19529127 7.9739386 -5.86700917 7.21954601 -8 6 C-7.4225 5.65066406 -6.845 5.30132812 -6.25 4.94140625 C-5.5075 4.48636719 -4.765 4.03132812 -4 3.5625 C-3.2575 3.11003906 -2.515 2.65757812 -1.75 2.19140625 C-1.1725 1.79824219 -0.595 1.40507812 0 1 C0 0.67 0 0.34 0 0 Z " fill="#4F8962" transform="translate(67,218)"/>
<path d="M0 0 C0.99 0.33 1.98 0.66 3 1 C3.33 9.25 3.66 17.5 4 26 C5.32 25.01 6.64 24.02 8 23 C10 24 10 24 11 26 C10.67 26.66 10.34 27.32 10 28 C11.32 28.33 12.64 28.66 14 29 C13.37351562 29.20496094 12.74703125 29.40992188 12.1015625 29.62109375 C11.28429687 29.89050781 10.46703125 30.15992188 9.625 30.4375 C8.81289063 30.70433594 8.00078125 30.97117188 7.1640625 31.24609375 C4.98968201 31.95179729 4.98968201 31.95179729 3 33 C1.98961517 29.62833468 1.84748415 26.50338206 1.7890625 22.9921875 C1.74652344 21.26548828 1.74652344 21.26548828 1.703125 19.50390625 C1.65087689 17.07698154 1.60665583 14.64987123 1.5703125 12.22265625 C1.539375 11.07410156 1.5084375 9.92554688 1.4765625 8.7421875 C1.45674316 7.6888623 1.43692383 6.63553711 1.41650391 5.55029297 C1.27905762 4.70869629 1.14161133 3.86709961 1 3 C0.01 2.34 -0.98 1.68 -2 1 C-1.34 0.67 -0.68 0.34 0 0 Z " fill="#6E9B7D" transform="translate(258,214)"/>
<path d="M0 0 C0.33 0 0.66 0 1 0 C1.33 10.56 1.66 21.12 2 32 C2.99 32 3.98 32 5 32 C5 32.99 5 33.98 5 35 C4.505 35.495 4.505 35.495 4 36 C4.66 36.33 5.32 36.66 6 37 C6 37.99 6 38.98 6 40 C1.25 41.125 1.25 41.125 -1 40 C-0.67 26.8 -0.34 13.6 0 0 Z " fill="#80AE8E" transform="translate(252,237)"/>
<path d="M0 0 C1.32 0.66 2.64 1.32 4 2 C4.54330269 8.65545792 3.77304004 12.45834744 0 18 C-0.33 18 -0.66 18 -1 18 C-1.22119939 15.37549914 -1.42746669 12.75129514 -1.625 10.125 C-1.68945312 9.37863281 -1.75390625 8.63226563 -1.8203125 7.86328125 C-1.96087365 5.9129953 -1.98759849 3.95530533 -2 2 C-1.34 1.34 -0.68 0.68 0 0 Z " fill="#4A8B5D" transform="translate(441,245)"/>
<path d="M0 0 C4.75 0.875 4.75 0.875 7 2 C7 2.99 7 3.98 7 5 C7.66 5.33 8.32 5.66 9 6 C8.67 7.32 8.34 8.64 8 10 C6.68 10 5.36 10 4 10 C4 11.65 4 13.3 4 15 C3.67 15 3.34 15 3 15 C2.896875 13.948125 2.79375 12.89625 2.6875 11.8125 C2.01514772 8.08400102 0.93285592 6.16285515 -1 3 C-0.67 2.01 -0.34 1.02 0 0 Z " fill="#49885C" transform="translate(414,238)"/>
<path d="M0 0 C0 0.33 0 0.66 0 1 C-11.88 1 -23.76 1 -36 1 C-36 0.67 -36 0.34 -36 0 C-11.68025078 -3.15987461 -11.68025078 -3.15987461 0 0 Z " fill="#3F7852" transform="translate(222,275)"/>
<path d="M0 0 C0.33 0 0.66 0 1 0 C1 10.56 1 21.12 1 32 C-2.96 32.99 -6.92 33.98 -11 35 C-11.66 34.34 -12.32 33.68 -13 33 C-11.02 32.34 -9.04 31.68 -7 31 C-7 29.68 -7 28.36 -7 27 C-5.68 27.33 -4.36 27.66 -3 28 C-3 28.66 -3 29.32 -3 30 C-2.34 30 -1.68 30 -1 30 C-0.67 20.1 -0.34 10.2 0 0 Z " fill="#6A9474" transform="translate(102,253)"/>
<path d="M0 0 C4.65553289 -0.46555329 8.63399746 -0.82636291 12.5 2.125 C15.21550125 5.24782644 15.81037036 6.92296284 16 11 C15.0925 10.814375 14.185 10.62875 13.25 10.4375 C10.31685676 10.04265379 8.7355343 10.05308428 6 11 C5.67 10.01 5.34 9.02 5 8 C4.34 7.67 3.68 7.34 3 7 C6.09319586 6.14670459 8.79336115 6 12 6 C11.67 5.34 11.34 4.68 11 4 C10.01 3.67 9.02 3.34 8 3 C8 2.34 8 1.68 8 1 C7.236875 1.20625 6.47375 1.4125 5.6875 1.625 C3 2 3 2 0 0 Z " fill="#729F7E" transform="translate(431,236)"/>
<path d="M0 0 C2.48935591 0.78930797 4.669779 1.8348895 7 3 C6.67 3.66 6.34 4.32 6 5 C5 5 4 5 3 5 C3 6.65 3 8.3 3 10 C2.01 10.495 2.01 10.495 1 11 C0.34 10.67 -0.32 10.34 -1 10 C-1 9.34 -1 8.68 -1 8 C-1.598125 7.87625 -2.19625 7.7525 -2.8125 7.625 C-5 7 -5 7 -8 5 C-7.236875 4.54625 -6.47375 4.0925 -5.6875 3.625 C-3.76367186 2.46175508 -1.87058776 1.2470585 0 0 Z " fill="#72A180" transform="translate(87,224)"/>
<path d="M0 0 C0.33 0 0.66 0 1 0 C1 6.6 1 13.2 1 20 C1.66 20 2.32 20 3 20 C4.49821059 23.37097383 5 25.20442119 5 29 C3.02 29 1.04 29 -1 29 C-1 28.34 -1 27.68 -1 27 C-1.99 26.67 -2.98 26.34 -4 26 C-3.01 24.515 -3.01 24.515 -2 23 C-1.67 22.34 -1.34 21.68 -1 21 C-0.01 21.66 0.98 22.32 2 23 C2 22.34 2 21.68 2 21 C1.34 21 0.68 21 0 21 C0 14.07 0 7.14 0 0 Z " fill="#49835A" transform="translate(259,247)"/>
<path d="M0 0 C-0.8125 3.4375 -0.8125 3.4375 -2 7 C-2.99 7.33 -3.98 7.66 -5 8 C-5.33 7.34 -5.66 6.68 -6 6 C-6.99 6.495 -6.99 6.495 -8 7 C-8 6.01 -8 5.02 -8 4 C-9.32 3.67 -10.64 3.34 -12 3 C-11.67 2.01 -11.34 1.02 -11 0 C-6.98195309 -0.84098656 -3.98196457 -1.05404945 0 0 Z " fill="#4A885D" transform="translate(354,238)"/>
<path d="M0 0 C1.258125 -0.04125 2.51625 -0.0825 3.8125 -0.125 C4.52019531 -0.14820313 5.22789063 -0.17140625 5.95703125 -0.1953125 C8 0 8 0 11 2 C8.03 1.505 8.03 1.505 5 1 C5.34786708 2.97536745 5.34786708 2.97536745 6 5 C6.66 5.33 7.32 5.66 8 6 C8 6.33 8 6.66 8 7 C2.06 7 -3.88 7 -10 7 C-10 6.34 -10 5.68 -10 5 C-4.06 4.505 -4.06 4.505 2 4 C1.34 2.68 0.68 1.36 0 0 Z " fill="#427F57" transform="translate(65,273)"/>
<path d="M0 0 C1.67542976 0.28604898 3.34385343 0.61781233 5 1 C4.67 1.66 4.34 2.32 4 3 C2.68 3 1.36 3 0 3 C-0.33 3.99 -0.66 4.98 -1 6 C-2.98 6.33 -4.96 6.66 -7 7 C-6.938125 8.918125 -6.938125 8.918125 -6.875 10.875 C-6.8046875 13.0546875 -6.8046875 13.0546875 -7 15 C-7.66 15.66 -8.32 16.32 -9 17 C-9.33 12.71 -9.66 8.42 -10 4 C-5 1 -5 1 -1 1 C-0.67 0.67 -0.34 0.34 0 0 Z " fill="#699B78" transform="translate(111,216)"/>
<path d="M0 0 C2.64 0 5.28 0 8 0 C8 0.66 8 1.32 8 2 C9.32 2.33 10.64 2.66 12 3 C12 3.66 12 4.32 12 5 C10.35 5.66 8.7 6.32 7 7 C7 6.34 7 5.68 7 5 C5.8553125 5.2784375 5.8553125 5.2784375 4.6875 5.5625 C2 6 2 6 -1 5 C-0.67 3.35 -0.34 1.7 0 0 Z " fill="#48855A" transform="translate(431,237)"/>
<path d="M0 0 C0.33 0.99 0.66 1.98 1 3 C0.67 3.66 0.34 4.32 0 5 C0.99 5.33 1.98 5.66 3 6 C2.36191406 6.18175781 1.72382813 6.36351562 1.06640625 6.55078125 C0.24011719 6.80214844 -0.58617187 7.05351562 -1.4375 7.3125 C-2.67306641 7.67794922 -2.67306641 7.67794922 -3.93359375 8.05078125 C-4.61550781 8.36402344 -5.29742187 8.67726562 -6 9 C-6.33 9.99 -6.66 10.98 -7 12 C-7.66666667 9.33333333 -8.33333333 6.66666667 -9 4 C-6.03 2.68 -3.06 1.36 0 0 Z " fill="#7FA78C" transform="translate(430,237)"/>
<path d="M0 0 C3.70129644 0.38961015 5.61879622 1.11749016 8 4 C8 3.34 8 2.68 8 2 C9.98 1.67 11.96 1.34 14 1 C12.25 4.875 12.25 4.875 10 6 C10.33 6.66 10.66 7.32 11 8 C9.68 8.33 8.36 8.66 7 9 C6.34 7.35 5.68 5.7 5 4 C1.7 3.67 -1.6 3.34 -5 3 C-3.68 2.34 -2.36 1.68 -1 1 C-0.67 0.67 -0.34 0.34 0 0 Z " fill="#749F7E" transform="translate(394,236)"/>
<path d="M0 0 C0.928125 0.2784375 0.928125 0.2784375 1.875 0.5625 C4.04160178 1.23686176 4.04160178 1.23686176 6 0 C6.33 1.65 6.66 3.3 7 5 C7.66 5 8.32 5 9 5 C9 4.34 9 3.68 9 3 C9.66 3.33 10.32 3.66 11 4 C10.67 5.32 10.34 6.64 10 8 C9.21625 7.814375 8.4325 7.62875 7.625 7.4375 C5.02910225 6.74037734 5.02910225 6.74037734 3 8 C3 7.34 3 6.68 3 6 C1.35 6.33 -0.3 6.66 -2 7 C-1.34 4.69 -0.68 2.38 0 0 Z " fill="#478259" transform="translate(103,232)"/>
<path d="M0 0 C1.98 0.99 1.98 0.99 4 2 C3.67 12.89 3.34 23.78 3 35 C2.67 35 2.34 35 2 35 C1.34 23.45 0.68 11.9 0 0 Z " fill="#417250" transform="translate(152,224)"/>
<path d="M0 0 C0.33 0 0.66 0 1 0 C1 3.96 1 7.92 1 12 C0.34 11.01 -0.32 10.02 -1 9 C-3.77000825 12.32086771 -3.77000825 12.32086771 -6 16 C-6.66 16 -7.32 16 -8 16 C-7.67 13.03 -7.34 10.06 -7 7 C-5.35 6.67 -3.7 6.34 -2 6 C-1.34 4.02 -0.68 2.04 0 0 Z " fill="#467F59" transform="translate(288,249)"/>
<path d="M0 0 C0.66 0.66 1.32 1.32 2 2 C0.68 2 -0.64 2 -2 2 C-2 2.66 -2 3.32 -2 4 C-2.99 4.66 -3.98 5.32 -5 6 C-4.67 6.66 -4.34 7.32 -4 8 C-4.66 8 -5.32 8 -6 8 C-6 10.31 -6 12.62 -6 15 C-6.33 15 -6.66 15 -7 15 C-7 13.35 -7 11.7 -7 10 C-8.32 9.34 -9.64 8.68 -11 8 C-11 7.01 -11 6.02 -11 5 C-9.730447 4.35165346 -8.45930294 3.70642185 -7.1875 3.0625 C-6.47980469 2.70285156 -5.77210938 2.34320313 -5.04296875 1.97265625 C-3 1 -3 1 0 0 Z " fill="#7CA386" transform="translate(304,235)"/>
<path d="M0 0 C-0.33 2.64 -0.66 5.28 -1 8 C-3.64 7.67 -6.28 7.34 -9 7 C-9.33 6.01 -9.66 5.02 -10 4 C-9.34 3.34 -8.68 2.68 -8 2 C-8 1.34 -8 0.68 -8 0 C-4.71023192 -1.09658936 -3.28696233 -0.79953138 0 0 Z " fill="#619771" transform="translate(78,274)"/>
<path d="M0 0 C2.95950142 1.37405423 5.41495396 3.01776932 8 5 C6.67935547 5.29003906 6.67935547 5.29003906 5.33203125 5.5859375 C3.58986328 5.97652344 3.58986328 5.97652344 1.8125 6.375 C0.66394531 6.63023437 -0.48460937 6.88546875 -1.66796875 7.1484375 C-4.58807348 7.89472452 -7.23953389 8.80431788 -10 10 C-9.375 7.625 -9.375 7.625 -8 5 C-5 3.875 -5 3.875 -2 3 C-1.34 2.01 -0.68 1.02 0 0 Z " fill="#699977" transform="translate(136,276)"/>
<path d="M0 0 C1.65 0.33 3.3 0.66 5 1 C5 4.3 5 7.6 5 11 C4.01 11 3.02 11 2 11 C2 9.68 2 8.36 2 7 C1.01 6.67 0.02 6.34 -1 6 C-0.67 4.02 -0.34 2.04 0 0 Z " fill="#579069" transform="translate(418,248)"/>
<path d="M0 0 C2.05078125 0.03255208 4.1015625 0.06510417 6.15234375 0.09765625 C6.81234375 1.41765625 7.47234375 2.73765625 8.15234375 4.09765625 C7.16234375 5.58265625 7.16234375 5.58265625 6.15234375 7.09765625 C3.51234375 6.43765625 0.87234375 5.77765625 -1.84765625 5.09765625 C-2.17765625 3.77765625 -2.50765625 2.45765625 -2.84765625 1.09765625 C-1.84765625 0.09765625 -1.84765625 0.09765625 0 0 Z " fill="#48805A" transform="translate(269.84765625,236.90234375)"/>
<path d="M0 0 C-3.00617269 3.00617269 -5.82381598 2.59585316 -10 3 C-10 7.29 -10 11.58 -10 16 C-12 14 -12 14 -12.265625 11.25 C-12.26046875 10.1775 -12.2553125 9.105 -12.25 8 C-12.25515625 6.9275 -12.2603125 5.855 -12.265625 4.75 C-12 2 -12 2 -10 0 C-6.33865009 -1.08850943 -3.68061127 -0.9464429 0 0 Z " fill="#699173" transform="translate(63,218)"/>
<path d="M0 0 C0.33 0 0.66 0 1 0 C1.33 1.65 1.66 3.3 2 5 C3.98 4.01 5.96 3.02 8 2 C8 2.66 8 3.32 8 4 C7.34 4 6.68 4 6 4 C6.34444881 6.47266765 6.34444881 6.47266765 7 9 C7.66 9.33 8.32 9.66 9 10 C8.67 10.99 8.34 11.98 8 13 C4.34683329 11.75023244 3.21934164 11.32901247 1 8 C0.67 8 0.34 8 0 8 C0 5.36 0 2.72 0 0 Z " fill="#77A082" transform="translate(110,278)"/>
<path d="M0 0 C0.33 0 0.66 0 1 0 C1 5.94 1 11.88 1 18 C2.32 18.33 3.64 18.66 5 19 C5 19.99 5 20.98 5 22 C2.39417629 22.93065133 1.35801776 23.14917407 -1.25 22.0625 C-2.11625 21.5365625 -2.11625 21.5365625 -3 21 C-2.34 20.67 -1.68 20.34 -1 20 C-1 19.01 -1 18.02 -1 17 C-0.93540991 15.66233238 -0.86165962 14.3250912 -0.78125 12.98828125 C-0.73613281 12.23095703 -0.69101563 11.47363281 -0.64453125 10.69335938 C-0.59683594 9.90767578 -0.54914063 9.12199219 -0.5 8.3125 C-0.42845703 7.11657227 -0.42845703 7.11657227 -0.35546875 5.89648438 C-0.2377716 3.93094197 -0.11899029 1.96546454 0 0 Z " fill="#749C80" transform="translate(241,254)"/>
<path d="M0 0 C2.875 0.5625 2.875 0.5625 4.75 1.5625 C6.60302556 4.85676767 6.11596594 7.82752789 5.875 11.5625 C4.875 12.5625 4.875 12.5625 2.3125 12.625 C1.508125 12.604375 0.70375 12.58375 -0.125 12.5625 C1.195 12.2325 2.515 11.9025 3.875 11.5625 C4.08470559 7.42156302 4.08470559 7.42156302 2.875 3.5625 C-0.75028568 3.36109524 -2.99001708 3.70473235 -6.125 5.5625 C-6.125 6.2225 -6.125 6.8825 -6.125 7.5625 C-6.785 7.2325 -7.445 6.9025 -8.125 6.5625 C-3.98459885 0.71722779 -3.98459885 0.71722779 0 0 Z " fill="#83A58B" transform="translate(314.125,235.4375)"/>
<path d="M0 0 C2.625 1.4375 2.625 1.4375 5 3 C4.67 3.99 4.34 4.98 4 6 C4.66 6.66 5.32 7.32 6 8 C2.05272412 8.17942163 -0.5980513 8.09350689 -4 6 C-2.25 1.125 -2.25 1.125 0 0 Z " fill="#49835A" transform="translate(136,219)"/>
<path d="M0 0 C3.4375 0.8125 3.4375 0.8125 7 2 C7.33 2.99 7.66 3.98 8 5 C7 6 7 6 4.93359375 6.09765625 C4.10988281 6.08605469 3.28617187 6.07445312 2.4375 6.0625 C1.61121094 6.05347656 0.78492188 6.04445313 -0.06640625 6.03515625 C-0.70449219 6.02355469 -1.34257812 6.01195312 -2 6 C-2.33 4.68 -2.66 3.36 -3 2 C-2.01 2.495 -2.01 2.495 -1 3 C-0.67 2.01 -0.34 1.02 0 0 Z " fill="#609170" transform="translate(333,270)"/>
<path d="M0 0 C1.32 0 2.64 0 4 0 C3.979375 1.11375 3.95875 2.2275 3.9375 3.375 C3.73619282 6.83215921 3.73619282 6.83215921 5 9 C3.35 9 1.7 9 0 9 C-0.33 8.01 -0.66 7.02 -1 6 C-1.66 5.67 -2.32 5.34 -3 5 C-1.75 2.5 -1.75 2.5 0 0 Z " fill="#71A37E" transform="translate(221,263)"/>
<path d="M0 0 C5.77281088 1.99828069 8.03084172 3.6555151 11 9 C9.68 8.67 8.36 8.34 7 8 C7 7.34 7 6.68 7 6 C5.01508358 6.26676204 5.01508358 6.26676204 3 7 C2.67 7.99 2.34 8.98 2 10 C1.34 10 0.68 10 0 10 C0 6.7 0 3.4 0 0 Z " fill="#548B62" transform="translate(89,226)"/>
<path d="M0 0 C7.26355612 -0.36317781 7.26355612 -0.36317781 10.28125 1.125 C12 3 12 3 12.171875 5.91796875 C12.03265625 6.99691406 11.8934375 8.07585937 11.75 9.1875 C11.62109375 10.27417969 11.4921875 11.36085937 11.359375 12.48046875 C11.24078125 13.31191406 11.1221875 14.14335937 11 15 C10.67 15 10.34 15 10 15 C9.95101562 14.28972656 9.90203125 13.57945312 9.8515625 12.84765625 C9.77679688 11.92855469 9.70203125 11.00945312 9.625 10.0625 C9.55539063 9.14597656 9.48578125 8.22945312 9.4140625 7.28515625 C9.27742187 6.53105469 9.14078125 5.77695313 9 5 C8.34 4.67 7.68 4.34 7 4 C7 3.01 7 2.02 7 1 C4.69 1 2.38 1 0 1 C0 0.67 0 0.34 0 0 Z " fill="#74977E" transform="translate(150,217)"/>
<path d="M0 0 C0.77772405 2.33317216 1.42415568 4.61435923 2 7 C1.34 7 0.68 7 0 7 C-0.33 9.31 -0.66 11.62 -1 14 C-3.61527381 11.63379989 -5.26440562 9.057952 -7 6 C-4.525 6.495 -4.525 6.495 -2 7 C-1.855625 6.030625 -1.71125 5.06125 -1.5625 4.0625 C-1 1 -1 1 0 0 Z " fill="#6A9A78" transform="translate(101,234)"/>
<path d="M0 0 C2.97 0.495 2.97 0.495 6 1 C6 1.99 6 2.98 6 4 C2.53118273 6.65262497 -0.6543813 7.71029209 -5 8 C-5.66 7.34 -6.32 6.68 -7 6 C-5.02 6 -3.04 6 -1 6 C-0.67 4.02 -0.34 2.04 0 0 Z " fill="#83A38C" transform="translate(379,270)"/>
<path d="M0 0 C2.03607306 1.86334707 2.95193248 3.34017793 3.15380859 6.11132812 C3.07027135 8.66767032 2.90021581 11.20117517 2.6875 13.75 C2.62626953 14.63816406 2.56503906 15.52632813 2.50195312 16.44140625 C2.34905186 18.62907044 2.18127554 20.81453442 2 23 C1.67 23 1.34 23 1 23 C0.13190561 17.79826905 -0.12515348 12.83021184 -0.0625 7.5625 C-0.05798828 6.83095703 -0.05347656 6.09941406 -0.04882812 5.34570312 C-0.03718148 3.56376581 -0.01925191 1.78187137 0 0 Z " fill="#457B57" transform="translate(347,242)"/>
<path d="M0 0 C2.475 0.495 2.475 0.495 5 1 C6.125 6.75 6.125 6.75 5 9 C3.68 9 2.36 9 1 9 C1.33 6.69 1.66 4.38 2 2 C1.34 2 0.68 2 0 2 C0 1.34 0 0.68 0 0 Z " fill="#468659" transform="translate(313,238)"/>
<path d="M0 0 C0.33 1.32 0.66 2.64 1 4 C-0.97746603 4.73080266 -2.98072489 5.39421747 -5 6 C-5.66 5.67 -6.32 5.34 -7 5 C-7 3.35 -7 1.7 -7 0 C-3.86650268 -1.04449911 -3.01031744 -0.93423645 0 0 Z " fill="#5D946E" transform="translate(124,283)"/>
<path d="M0 0 C2.31 0 4.62 0 7 0 C7 0.66 7 1.32 7 2 C6.34 2.66 5.68 3.32 5 4 C7.97 4.495 7.97 4.495 11 5 C11 5.33 11 5.66 11 6 C9.39620659 6.05416188 7.79188594 6.09286638 6.1875 6.125 C5.29417969 6.14820313 4.40085937 6.17140625 3.48046875 6.1953125 C1 6 1 6 -2 4 C-1.34 3.67 -0.68 3.34 0 3 C0 2.01 0 1.02 0 0 Z " fill="#88AE96" transform="translate(263,272)"/>
<path d="M0 0 C1.65 0 3.3 0 5 0 C5.33 2.31 5.66 4.62 6 7 C5.01 7.33 4.02 7.66 3 8 C3 7.01 3 6.02 3 5 C1.68 4.67 0.36 4.34 -1 4 C-0.67 2.68 -0.34 1.36 0 0 Z " fill="#6F9C7B" transform="translate(366,238)"/>
<path d="M0 0 C0.66 0.33 1.32 0.66 2 1 C2 3 2 3 0.5 4.625 C0.005 5.07875 -0.49 5.5325 -1 6 C-0.34 6.33 0.32 6.66 1 7 C0.01 8.485 0.01 8.485 -1 10 C-1.45375 9.525625 -1.9075 9.05125 -2.375 8.5625 C-3.93258204 6.90972192 -3.93258204 6.90972192 -6 6 C-6 5.01 -6 4.02 -6 3 C-4.03533587 1.93224776 -2.03144641 0.93446535 0 0 Z " fill="#769D83" transform="translate(252,216)"/>
<path d="M0 0 C0.99 0.33 1.98 0.66 3 1 C3.33 9.91 3.66 18.82 4 28 C3.34 28.33 2.68 28.66 2 29 C1.98541748 28.22285645 1.97083496 27.44571289 1.95581055 26.64501953 C1.88153022 23.13783312 1.78480411 19.6316199 1.6875 16.125 C1.66494141 14.90167969 1.64238281 13.67835938 1.61914062 12.41796875 C1.58369141 11.25136719 1.54824219 10.08476562 1.51171875 8.8828125 C1.48553467 7.80402832 1.45935059 6.72524414 1.43237305 5.61376953 C1.28968994 4.75122559 1.14700684 3.88868164 1 3 C0.01 2.34 -0.98 1.68 -2 1 C-1.34 0.67 -0.68 0.34 0 0 Z " fill="#A5C2AC" transform="translate(258,214)"/>
<path d="M0 0 C0.33 0 0.66 0 1 0 C1.07347656 1.26457031 1.07347656 1.26457031 1.1484375 2.5546875 C1.22320312 3.65039062 1.29796875 4.74609375 1.375 5.875 C1.44460937 6.96554687 1.51421875 8.05609375 1.5859375 9.1796875 C1.73253491 12.13046474 1.73253491 12.13046474 4 14 C2.35 14.66 0.7 15.32 -1 16 C-2.18758632 10.85379262 -1.97652537 6.15388392 -1 1 C-0.67 0.67 -0.34 0.34 0 0 Z " fill="#427C55" transform="translate(109,273)"/>
<path d="M0 0 C0 1.32 0 2.64 0 4 C-3.3 4 -6.6 4 -10 4 C-10 3.01 -10 2.02 -10 1 C-6.56484998 0.37542727 -3.50935186 0 0 0 Z " fill="#548868" transform="translate(278,273)"/>
<path d="M0 0 C-0.375 1.9375 -0.375 1.9375 -1 4 C-1.99 4.495 -1.99 4.495 -3 5 C-3.99 6.485 -3.99 6.485 -5 8 C-8 3.25 -8 3.25 -8 1 C-5.29120665 -0.35439668 -2.99066732 -0.06501451 0 0 Z " fill="#448157" transform="translate(107,214)"/>
<path d="M0 0 C0.99 0.33 1.98 0.66 3 1 C3.33 2.98 3.66 4.96 4 7 C1 7 1 7 -2 6 C-2 5.34 -2 4.68 -2 4 C-2.66 3.67 -3.32 3.34 -4 3 C-2.1875 1.4375 -2.1875 1.4375 0 0 Z " fill="#568F65" transform="translate(280,242)"/>
<path d="M0 0 C2.31 0.66 4.62 1.32 7 2 C6.67 3.65 6.34 5.3 6 7 C5.67 6.34 5.34 5.68 5 5 C3.68 5.33 2.36 5.66 1 6 C0.34 5.01 -0.32 4.02 -1 3 C-0.67 2.01 -0.34 1.02 0 0 Z " fill="#61956F" transform="translate(88,277)"/>
<path d="M0 0 C0.66 0.33 1.32 0.66 2 1 C1.67 2.32 1.34 3.64 1 5 C1.99 5 2.98 5 4 5 C4 5.66 4 6.32 4 7 C5.98 7 7.96 7 10 7 C10 7.33 10 7.66 10 8 C2.61538462 9.35384615 2.61538462 9.35384615 -0.5 7.5625 C-0.995 7.046875 -1.49 6.53125 -2 6 C-1.67 4.68 -1.34 3.36 -1 2 C-1.66 1.67 -2.32 1.34 -3 1 C-2.01 0.67 -1.02 0.34 0 0 Z " fill="#6B9D7B" transform="translate(132,220)"/>
<path d="M0 0 C-3 2 -3 2 -5 2 C-5 3.65 -5 5.3 -5 7 C-5.33 6.01 -5.66 5.02 -6 4 C-8.01508358 3.26676204 -8.01508358 3.26676204 -10 3 C-9.67 2.01 -9.34 1.02 -9 0 C-3.375 -1.125 -3.375 -1.125 0 0 Z " fill="#779A82" transform="translate(352,238)"/>
<path d="M0 0 C6.39534884 0.69767442 6.39534884 0.69767442 9 2 C9 2.66 9 3.32 9 4 C5.69903842 4.8252404 3.1967 5.37001429 0 4 C-0.33 3.01 -0.66 2.02 -1 1 C-0.67 0.67 -0.34 0.34 0 0 Z " fill="#5F8E6E" transform="translate(184,218)"/>
<path d="M0 0 C0.94875 0.04125 1.8975 0.0825 2.875 0.125 C2.545 1.445 2.215 2.765 1.875 4.125 C1.215 4.125 0.555 4.125 -0.125 4.125 C-0.455 4.785 -0.785 5.445 -1.125 6.125 C-2.445 4.805 -3.765 3.485 -5.125 2.125 C-3.125 0.125 -3.125 0.125 0 0 Z " fill="#6A9678" transform="translate(232.125,238.875)"/>
<path d="M0 0 C-0.33 0.99 -0.66 1.98 -1 3 C-3.31 2.67 -5.62 2.34 -8 2 C-8.99 3.485 -8.99 3.485 -10 5 C-10 4.34 -10 3.68 -10 3 C-10.66 3 -11.32 3 -12 3 C-12.33 3.66 -12.66 4.32 -13 5 C-13 4.01 -13 3.02 -13 2 C-11.5882217 1.46605821 -10.17029756 0.94834896 -8.75 0.4375 C-7.96109375 0.14746094 -7.1721875 -0.14257812 -6.359375 -0.44140625 C-3.80896548 -1.04522837 -2.44677771 -0.8473932 0 0 Z " fill="#769D83" transform="translate(132,186)"/>
<path d="M0 0 C-1.485 2.475 -1.485 2.475 -3 5 C-4.98 4.34 -6.96 3.68 -9 3 C-9 2.34 -9 1.68 -9 1 C-6.04335481 -0.4783226 -3.25770263 -0.06032783 0 0 Z " fill="#4E8860" transform="translate(144,273)"/>
<path d="M0 0 C0.33 0.66 0.66 1.32 1 2 C1.99 2.33 2.98 2.66 4 3 C3.67 4.32 3.34 5.64 3 7 C0.03 6.505 0.03 6.505 -3 6 C-2.34 5.67 -1.68 5.34 -1 5 C-0.34444881 2.47266765 -0.34444881 2.47266765 0 0 Z " fill="#769A82" transform="translate(447,270)"/>
<path d="M0 0 C0.33 0 0.66 0 1 0 C1 3.63 1 7.26 1 11 C2.32 11.33 3.64 11.66 5 12 C5 12.99 5 13.98 5 15 C2.03 14.505 2.03 14.505 -1 14 C-0.67 9.38 -0.34 4.76 0 0 Z " fill="#779B83" transform="translate(423,261)"/>
<path d="M0 0 C0.8353125 0.556875 0.8353125 0.556875 1.6875 1.125 C-0.6225 1.785 -2.9325 2.445 -5.3125 3.125 C-5.9725 2.465 -6.6325 1.805 -7.3125 1.125 C-2.88173077 -1.09038462 -2.88173077 -1.09038462 0 0 Z M-8.3125 3.125 C-7.3225 3.125 -6.3325 3.125 -5.3125 3.125 C-5.3125 3.785 -5.3125 4.445 -5.3125 5.125 C-4.6525 5.785 -3.9925 6.445 -3.3125 7.125 C-5.9525 6.795 -8.5925 6.465 -11.3125 6.125 C-10.3225 5.795 -9.3325 5.465 -8.3125 5.125 C-8.3125 4.465 -8.3125 3.805 -8.3125 3.125 Z " fill="#669876" transform="translate(80.3125,220.875)"/>
<path d="M0 0 C1.32 0.33 2.64 0.66 4 1 C3.67 2.65 3.34 4.3 3 6 C0.69 6.66 -1.62 7.32 -4 8 C-4.66 7.34 -5.32 6.68 -6 6 C-4.02 5.34 -2.04 4.68 0 4 C0 2.68 0 1.36 0 0 Z " fill="#74A181" transform="translate(95,280)"/>
<path d="M0 0 C0.33 0.66 0.66 1.32 1 2 C0.0625 4.625 0.0625 4.625 -1 7 C-1.66 7 -2.32 7 -3 7 C-3.33 7.99 -3.66 8.98 -4 10 C-4.66 10 -5.32 10 -6 10 C-4.79157144 5.56909529 -3.48331435 3.01887244 0 0 Z " fill="#6F987C" transform="translate(114,193)"/>
<path d="M0 0 C0.66 0.99 1.32 1.98 2 3 C1.67 3.99 1.34 4.98 1 6 C-0.98 5.01 -2.96 4.02 -5 3 C-5 2.34 -5 1.68 -5 1 C-3 0 -3 0 0 0 Z " fill="#5F8E6B" transform="translate(98,286)"/>
<path d="M0 0 C0.99 0 1.98 0 3 0 C3.33 1.65 3.66 3.3 4 5 C3.34 5 2.68 5 2 5 C2 7.31 2 9.62 2 12 C1.67 11.34 1.34 10.68 1 10 C0.01 9.67 -0.98 9.34 -2 9 C-1.34 8.34 -0.68 7.68 0 7 C1.07075235 3.41945345 1.07075235 3.41945345 0 0 Z " fill="#6A9776" transform="translate(352,237)"/>
<path d="M0 0 C-2.25 2.0625 -2.25 2.0625 -5 4 C-7.3125 3.75 -7.3125 3.75 -9 3 C-8.67 1.68 -8.34 0.36 -8 -1 C-4.59745511 -2.2151946 -3.06748874 -1.86240388 0 0 Z " fill="#458358" transform="translate(87,225)"/>
<path d="M0 0 C0.66 0.99 1.32 1.98 2 3 C1.01 3 0.02 3 -1 3 C-1 3.66 -1 4.32 -1 5 C0.65 5 2.3 5 4 5 C3.34 5.66 2.68 6.32 2 7 C-1.125 6.625 -1.125 6.625 -4 6 C-4 5.01 -4 4.02 -4 3 C-2.68 2.67 -1.36 2.34 0 2 C0 1.34 0 0.68 0 0 Z " fill="#92AF9A" transform="translate(326,270)"/>
<path d="M0 0 C0 2.31 0 4.62 0 7 C-0.99 6.67 -1.98 6.34 -3 6 C-2.67 4.35 -2.34 2.7 -2 1 C-3.65 1.33 -5.3 1.66 -7 2 C-6 0 -6 0 -4.0625 -0.6875 C-2 -1 -2 -1 0 0 Z " fill="#6E997A" transform="translate(378,236)"/>
<path d="M0 0 C2.475 0.99 2.475 0.99 5 2 C4.34 3.32 3.68 4.64 3 6 C1.68 5.34 0.36 4.68 -1 4 C-1 1 -1 1 0 0 Z " fill="#518B63" transform="translate(273,238)"/>
<path d="M0 0 C0.66 0.66 1.32 1.32 2 2 C0.3125 4.0625 0.3125 4.0625 -2 6 C-4.75 5.75 -4.75 5.75 -7 5 C-4.78065836 1.67098753 -3.65316671 1.24976756 0 0 Z " fill="#62946F" transform="translate(86,225)"/>
<path d="M0 0 C0.99 0.99 1.98 1.98 3 3 C2.34 4.65 1.68 6.3 1 8 C0.67 7.34 0.34 6.68 0 6 C-0.66 6 -1.32 6 -2 6 C-2 4.35 -2 2.7 -2 1 C-1.34 0.67 -0.68 0.34 0 0 Z " fill="#488C60" transform="translate(108,211)"/>
<path d="M0 0 C0.28875 0.61875 0.5775 1.2375 0.875 1.875 C1.93720042 4.13325765 1.93720042 4.13325765 4 6 C0.37 6 -3.26 6 -7 6 C-3 4 -3 4 -1 4 C-0.67 2.68 -0.34 1.36 0 0 Z " fill="#749F82" transform="translate(360,271)"/>
<path d="M0 0 C1.32 0 2.64 0 4 0 C4 1.98 4 3.96 4 6 C4.66 6.33 5.32 6.66 6 7 C5.67 7.99 5.34 8.98 5 10 C3.5 8.8125 3.5 8.8125 2 7 C1.95936168 5.33382885 1.957279 3.66611905 2 2 C1.34 1.34 0.68 0.68 0 0 Z " fill="#457D56" transform="translate(302,237)"/>
<path d="M0 0 C0.33 0.99 0.66 1.98 1 3 C0.67 3.66 0.34 4.32 0 5 C0.99 5.33 1.98 5.66 3 6 C1.02 6 -0.96 6 -3 6 C-3.33 5.34 -3.66 4.68 -4 4 C-3.67 3.01 -3.34 2.02 -3 1 C-2.01 0.67 -1.02 0.34 0 0 Z " fill="#649674" transform="translate(430,237)"/>
<path d="M0 0 C-3.00617269 3.00617269 -5.82381598 2.59585316 -10 3 C-10 2.01 -10 1.02 -10 0 C-6.30458414 -0.95024979 -3.69541586 -0.95024979 0 0 Z " fill="#60866C" transform="translate(63,218)"/>
<path d="M0 0 C0.66 0.33 1.32 0.66 2 1 C1.67 2.32 1.34 3.64 1 5 C-2.75 6.125 -2.75 6.125 -5 5 C-5 4.34 -5 3.68 -5 3 C-4.360625 2.87625 -3.72125 2.7525 -3.0625 2.625 C-2.0415625 2.315625 -2.0415625 2.315625 -1 2 C-0.67 1.34 -0.34 0.68 0 0 Z " fill="#478458" transform="translate(94,280)"/>
<path d="M0 0 C3 1 3 1 4 3 C-1.02296004 4.13016601 -4.97874074 3.77916092 -10 3 C-10 2.67 -10 2.34 -10 2 C-9.04287109 1.90912109 -9.04287109 1.90912109 -8.06640625 1.81640625 C-6.82697266 1.69072266 -6.82697266 1.69072266 -5.5625 1.5625 C-4.73878906 1.48128906 -3.91507812 1.40007812 -3.06640625 1.31640625 C-1.01337975 1.21069185 -1.01337975 1.21069185 0 0 Z " fill="#437654" transform="translate(306,273)"/>
<path d="M0 0 C2.31 0.66 4.62 1.32 7 2 C7 2.66 7 3.32 7 4 C4.69 4.33 2.38 4.66 0 5 C0 3.35 0 1.7 0 0 Z " fill="#50805F" transform="translate(361,271)"/>
<path d="M0 0 C0.66 0.33 1.32 0.66 2 1 C2 2.32 2 3.64 2 5 C1.01 5.495 1.01 5.495 0 6 C-0.33 6.66 -0.66 7.32 -1 8 C-1.99 7.01 -2.98 6.02 -4 5 C-3.34 5 -2.68 5 -2 5 C-1.34 3.35 -0.68 1.7 0 0 Z " fill="#468456" transform="translate(334,221)"/>
<path d="M0 0 C1.32 0.33 2.64 0.66 4 1 C4.33 2.32 4.66 3.64 5 5 C3.35 4.67 1.7 4.34 0 4 C0 2.68 0 1.36 0 0 Z " fill="#468C5C" transform="translate(92,210)"/>
<path d="M0 0 C2.31 0 4.62 0 7 0 C5.35 1.65 3.7 3.3 2 5 C1.34 4.67 0.68 4.34 0 4 C0 2.68 0 1.36 0 0 Z " fill="#6E9B7A" transform="translate(109,291)"/>
<path d="M0 0 C1.32 0 2.64 0 4 0 C4.33 1.32 4.66 2.64 5 4 C2.69 3.67 0.38 3.34 -2 3 C-1.34 2.01 -0.68 1.02 0 0 Z " fill="#4A8D5D" transform="translate(128,277)"/>
<path d="M0 0 C1.65 0.33 3.3 0.66 5 1 C4.34 2.32 3.68 3.64 3 5 C1.68 4.67 0.36 4.34 -1 4 C-0.34 3.67 0.32 3.34 1 3 C0.67 2.01 0.34 1.02 0 0 Z " fill="#70977D" transform="translate(399,272)"/>
<path d="M0 0 C1.32 0.33 2.64 0.66 4 1 C4.33 2.65 4.66 4.3 5 6 C3.0625 5.25 3.0625 5.25 1 4 C0.25 1.875 0.25 1.875 0 0 Z " fill="#6D997A" transform="translate(348,270)"/>
<path d="M0 0 C0.33 0 0.66 0 1 0 C1 1.65 1 3.3 1 5 C-0.98 5.99 -0.98 5.99 -3 7 C-3.33 5.68 -3.66 4.36 -4 3 C-2.68 2.67 -1.36 2.34 0 2 C0 1.34 0 0.68 0 0 Z " fill="#4C855E" transform="translate(220,267)"/>
<path d="M0 0 C0 0.99 0 1.98 0 3 C-3.3 3 -6.6 3 -10 3 C-6.1865669 0.45771127 -4.5252563 -0.11908569 0 0 Z " fill="#7FA489" transform="translate(336,236)"/>
<path d="M0 0 C2.475 0.99 2.475 0.99 5 2 C4.67 2.99 4.34 3.98 4 5 C2.68 5 1.36 5 0 5 C-0.5625 3.0625 -0.5625 3.0625 -1 1 C-0.67 0.67 -0.34 0.34 0 0 Z " fill="#518A61" transform="translate(103,232)"/>
<path d="M0 0 C0.66 0.33 1.32 0.66 2 1 C2 1.99 2 2.98 2 4 C-0.375 4.625 -0.375 4.625 -3 5 C-3.66 4.34 -4.32 3.68 -5 3 C-2.625 1.4375 -2.625 1.4375 0 0 Z " fill="#679A75" transform="translate(127,222)"/>
<path d="M0 0 C2.96175123 0.61277612 4.38058783 1.25372522 7 3 C7 3.66 7 4.32 7 5 C7.66 5.33 8.32 5.66 9 6 C5.51669784 5.35494404 2.90567134 4.01782732 0 2 C0 1.34 0 0.68 0 0 Z " fill="#88A78E" transform="translate(89,213)"/>
<path d="M0 0 C2.475 0.99 2.475 0.99 5 2 C5 2.99 5 3.98 5 5 C3.35 4.67 1.7 4.34 0 4 C0 2.68 0 1.36 0 0 Z " fill="#629170" transform="translate(87,208)"/>
<path d="M0 0 C1.125 3.75 1.125 3.75 0 6 C-2.5625 6.625 -2.5625 6.625 -5 7 C-4.67 5.68 -4.34 4.36 -4 3 C-2.68 3 -1.36 3 0 3 C0 2.01 0 1.02 0 0 Z " fill="#62906F" transform="translate(415,269)"/>
<path d="M0 0 C1.65 0 3.3 0 5 0 C4.01 0.33 3.02 0.66 2 1 C1.67 3.31 1.34 5.62 1 8 C-0.42944945 5.64561267 -1.08661261 4.51967567 -0.625 1.75 C-0.41875 1.1725 -0.2125 0.595 0 0 Z " fill="#4B7E5B" transform="translate(233,220)"/>
<path d="M0 0 C1.65 0 3.3 0 5 0 C5 0.66 5 1.32 5 2 C5.66 2.66 6.32 3.32 7 4 C5.02 4 3.04 4 1 4 C0.67 2.68 0.34 1.36 0 0 Z " fill="#97B8A0" transform="translate(228,273)"/>
<path d="M0 0 C0.99 0 1.98 0 3 0 C3 2.31 3 4.62 3 7 C2.34 7 1.68 7 1 7 C0.67 4.69 0.34 2.38 0 0 Z " fill="#648D74" transform="translate(222,263)"/>
<path d="M0 0 C0.66 0.66 1.32 1.32 2 2 C1.625 4.625 1.625 4.625 1 7 C0.01 6.67 -0.98 6.34 -2 6 C-1.34 4.02 -0.68 2.04 0 0 Z " fill="#4D8A60" transform="translate(317,239)"/>
<path d="M0 0 C0.99 0.33 1.98 0.66 3 1 C2.67 2.32 2.34 3.64 2 5 C0.68 4.67 -0.64 4.34 -2 4 C-2 3.01 -2 2.02 -2 1 C-1.34 0.67 -0.68 0.34 0 0 Z " fill="#779F82" transform="translate(324,239)"/>
<path d="M0 0 C1.32 1.32 2.64 2.64 4 4 C2.02 5.32 0.04 6.64 -2 8 C-1.125 1.125 -1.125 1.125 0 0 Z " fill="#699978" transform="translate(120,232)"/>
<path d="M0 0 C2 1 2 1 3.125 4.0625 C3.41375 5.031875 3.7025 6.00125 4 7 C1.5625 6.1875 1.5625 6.1875 -1 5 C-1.33 4.01 -1.66 3.02 -2 2 C-1.34 2 -0.68 2 0 2 C0 1.34 0 0.68 0 0 Z " fill="#5C9069" transform="translate(97,213)"/>
<path d="M0 0 C0.33 0.66 0.66 1.32 1 2 C1.66 2 2.32 2 3 2 C3 2.66 3 3.32 3 4 C4.32 4.33 5.64 4.66 7 5 C2.25 6.125 2.25 6.125 0 5 C0 3.35 0 1.7 0 0 Z " fill="#9CB1A1" transform="translate(251,272)"/>
<path d="M0 0 C1.32 0.33 2.64 0.66 4 1 C4 2.32 4 3.64 4 5 C2.02 5 0.04 5 -2 5 C-1.01 4.01 -0.02 3.02 1 2 C0.67 1.34 0.34 0.68 0 0 Z " fill="#9FBAA5" transform="translate(307,272)"/>
</svg>
